<svg id="Шар_1" data-name="Шар 1" xmlns="http://www.w3.org/2000/svg" viewBox="0 0 611.816 889.025"><defs><style>.cls-1{fill:#6d6e71}.cls-2{fill:#00d2aa}.cls-3{fill:#008cb4}.cls-4{fill:#00aa87}.cls-5{fill:#0082d2}.cls-13,.cls-15,.cls-18,.cls-6,.cls-8{fill:#fff}.cls-7{opacity:.7}.cls-8{font-size:14.6621px}.cls-13,.cls-15,.cls-18,.cls-30,.cls-8{font-family:MyriadPro-Regular,Myriad Pro}.cls-9{letter-spacing:.02101em}.cls-10{letter-spacing:-.004em}.cls-11{letter-spacing:.004em}.cls-12{letter-spacing:-.01399em}.cls-13{font-size:13.76287px}.cls-14,.cls-23,.cls-24,.cls-25,.cls-28{fill:none;stroke-width:3px}.cls-14{stroke:#fff;stroke-linecap:round}.cls-15{font-size:18.32762px}.cls-16{letter-spacing:.00298em}.cls-17{letter-spacing:.01596em}.cls-18{font-size:19.76754px}.cls-19{letter-spacing:-.00598em}.cls-20{letter-spacing:.00002em}.cls-21{letter-spacing:-.008em}.cls-22{letter-spacing:-.00699em}.cls-23{stroke:#8562a3}.cls-23,.cls-24,.cls-25,.cls-28{stroke-miterlimit:10}.cls-24{stroke:#f04946}.cls-25{stroke:#00d2aa}.cls-26{fill:#8562a3}.cls-27{fill:#f04946}.cls-28{stroke:#348ea9}.cls-29{fill:#f48c37}.cls-30{font-size:35px}.cls-31{letter-spacing:.00399em}.cls-32{letter-spacing:-.00999em}.cls-33{letter-spacing:-.006em}.cls-34{letter-spacing:.00001em}</style></defs><title>infographic</title><circle class="cls-1" cx="304.186" cy="173.833" r="85.355"/><path class="cls-2" d="M539.764 6.003a85.355 85.355 0 0 0-80.615 113.404l-47.788 19.022a102.58 102.58 0 0 0-170.468-26.873l5.603 4.998a95.112 95.112 0 0 1 155.048 107.81l6.632 3.52a102.554 102.554 0 0 0 5.98-82.486l47.774-19.017A85.353 85.353 0 1 0 539.764 6.004z" transform="translate(-13.302 -6.003)"/><path class="cls-3" d="M411.026 333.221a56.63 56.63 0 0 0-20.472 3.82l-30.863-65.368a101.443 101.443 0 0 0 39.945-32.891l-3.659-2.631a96.585 96.585 0 0 1-162.286-8.24l-3.907 2.247a100.962 100.962 0 0 0 125.777 43.318l30.852 65.342a56.817 56.817 0 1 0 24.613-5.597z" transform="translate(-13.302 -6.003)"/><path class="cls-4" d="M317.488 295.228a115.514 115.514 0 0 0 31.913-4.507l-1.244-4.33a110.898 110.898 0 0 1-134.796-68.352l-4.23 1.551a115.568 115.568 0 0 0 53.881 61.877l-17.91 35.039a56.873 56.873 0 1 0 4.012 2.055l17.91-35.04a114.93 114.93 0 0 0 50.464 11.707z" transform="translate(-13.302 -6.003)"/><path class="cls-5" d="M240.94 123.385l-6.04-4.462a101.69 101.69 0 0 0-18.653 44.01l-52.014-6.74a76.71 76.71 0 0 0 .257-5.974 75.66 75.66 0 1 0-1.212 13.423l52.026 6.741a104.386 104.386 0 0 0-.445 9.454 102.03 102.03 0 0 0 7.92 39.578l6.93-2.898a95.178 95.178 0 0 1 11.23-93.132z" transform="translate(-13.302 -6.003)"/><path class="cls-6" d="M208.85 362.326l-2.584 5.924c-.825 2.094-.734 2.683-.544 2.828.142.183.742.275 2.97-.589l5.988-2.427zM226.359 344.176l-14.427 14.426c-.02.02-2.293 2.615-2.312 2.635l6.141 6.141 16.823-17.097zM235.065 345.72l-4.152-4.176a1.404 1.404 0 0 0-1.983.059l-1.55 1.552c2.14 2.268 5.284 5.342 6.14 6.176l1.604-1.63a1.403 1.403 0 0 0-.06-1.982z" transform="translate(-13.302 -6.003)"/><g class="cls-7"><path class="cls-6" d="M208.85 362.326l-2.584 5.924c-.825 2.094-.734 2.683-.544 2.828.142.183.742.275 2.97-.589l5.988-2.427zM226.359 344.176l-14.427 14.426c-.02.02-2.293 2.615-2.312 2.635l6.141 6.141 16.823-17.097zM235.065 345.72l-4.152-4.176a1.404 1.404 0 0 0-1.983.059l-1.55 1.552c2.14 2.268 5.284 5.342 6.14 6.176l1.604-1.63a1.403 1.403 0 0 0-.06-1.982z" transform="translate(-13.302 -6.003)"/></g><g id="layer1"><path id="ua" class="cls-6" d="M373.615 194.23l.349-1.944-.99-.5.559-3.277 3.16-1.767-.004-1.197.345-1.118 7.265-1.204-.053-1.391-.338-.537.624-.319-.278-.799.425-1.467.381-.466-1.205-.365.393-.923-.915-2.047-1.643-.465 2.015-2.394.58-1.34-2.946-.393 1.514-1.404 1.136-3.79-1.114-1.173.31-1.77-2.283 1.139-2.172-1.781-2.306.029-.677-1.073-1.737 1.17-1.738-.855-.629-.878-1.335.617-1.592-1.097-1.82 2.347-1.054-1.435-1.293-.385-2.737-3.75-5.776 3.566-1.719-.941-.77.56-1.095-1.26-4.421.838-1.337-1.407-.49-1.491.577-.514-1.767-3.16.46-.816-.33-.166-1.041.131-.733-1.638-.417-.186-2.835.736-.339-.536-3.046.045.382-.466.091-.807-.795-.548.074-1.547-1.034-1.523 2.214-1.245-2.57-2.055-.481-1.121.13-.982-2.227-2.345-2.068 1.003-.298-.712-3.9 1.783-3.91-.61-1.123 3.332-2.056.546-.279-.8-3.718.17-.743.843-1.877-.242-2.174 3.095-.937 2.915.46 4.06-2.821-2.572-2.378.749-1.3-.755-2.334 1.77-1.504-3.1-2.37 1.118-.552 1.622-1.062-1.805-1.773.518-.753-1.55-1.192 1.201-1.73-.484-.854 1.738-1.695-1.856-1.841.41.266-.768-.74.017-.549-1.229-7.03-1.043-.514-.576-6.565-.661-3.352.987-2.374-.078-3.383 3.556-.318-.624-1.595-.27-.687 1.409-.107.067.02-.087.569 1.14-.357 1.576 3.732 5.446-1.55.752 1.3 2.779-3.374 1.902-8.315 9.89.737 2.834-.58 1.34 1.285 2.04-.358-.45-2.167-.583-1.947 4.526-1.454 1.142-.175 1.984 1.743 2.052.915.023.78 1.833 1.062-.22.64.422.45 1.666 2.178-1.898 2.474 1.665.557-.426 5.345 1.58 2.338-.573 2.868 2.766 2.636-1.886 7.44-1.164 1.187-2.398 2.095-.721.883-1.456.835.374-.144-.585 3.639.182 3.936-1.131 2.562 1.684.084.847 2.083-.263-.258 1.137.887-.258.287 1.169.822-1.194 3.346 2.69 1.268-.723.074 5.352 2.303 2.822 1.161-.656.292 4.39 3.04 1.609.259 2.91-.517.251 1.97 1.459-1.754.43-.294.485-1.297-1.582-.883 1.456-1.269-1.3-.635.776-.251-.517-.91 1.173-.33-.167.274-.397-.16-1.324-1.853.867.503 3.058-.648 1.233.092 1.217-1.296.442-.357 1.575-1.376.791-.821 3.218-1.313-.298.088.02-.938.891.592.227.287 1.169 4.005 1-.152-.954 1.762-.06 2.644-1.517 2.947 2.416.48-2.927-.167.33-.095-.39-.847.085.105-4.116.944 2.33 1.43-2.251.29.341.044-1.002 1.4.318.966-.609 3.203-4.793-.2-1.15.927-.433-.001-2.024 5.046-1.155.213-2.16.39 1.929 1.17-.287 1.507.25.873-3.85 5.835 3.071-1.356.705-.97 1.436-6.827-.721 1.472 1.622.266-.768 2.692.703-1.876 1.782 3.822.591.084.847 2.08.564 1.96-.936h2.024l.139-.613.66.334.89-1.086 1.802 1.788 1.232-1.376.34 2.56 1.216-.091-3.991 2.59-.748-.353.231.604-2.302 1.226-.596.6.183.41-2.715 2.236 3.726.201 2.832 2.114 2.49.38-.007 3.68.566 1.967-1.598.558 3.114 2.086 8.006-6.096 1.948-.478.99.501 1.237-2.203 1.375-.792-.243-.147.843-1.281 1.614.182 1.241 1.017 1.57-.84 1.44.143 2.583-5.302-3.853-.046-.99 1.524-1.098-.433-.298-.712-.854 1.738-1.746.8-5.963-6.964-.718-2.922 1.464 1.252 3.545-5.084 1.141-.569 1.312-1.726 3.387-.336 2.755-2.41 1.444 1.339.564-2.08 2.655-1.974.863.656 1.482-2.884 4.12-.721.386.731.735-1.213z" transform="translate(-13.302 -6.003)"/></g><text class="cls-8" transform="translate(358.562 407.942)">800 <tspan class="cls-9" x="25.672" y="0">с</tspan><tspan class="cls-10" x="32.549" y="0">л</tspan><tspan class="cls-11" x="39.924" y="0">у</tspan><tspan x="46.888" y="0">х</tspan><tspan class="cls-12" x="53.677" y="0">а</tspan><tspan x="60.539" y="0">чів</tspan></text><text class="cls-13" transform="translate(166.375 383.487)">490 учасників</text><g id="g1"><path id="polygon1" class="cls-6" d="M398.354 356.909l-11.069 9.574h-10.476v12.32h10.317l11.228 9.712v-31.606z"/><path id="path1" class="cls-14" d="M417.295 385.665a12.96 12.96 0 0 0-.054-13.843" transform="translate(-13.302 -6.003)"/><path id="path2" class="cls-14" d="M421.783 367.28a19.34 19.34 0 0 1 .062 22.932" transform="translate(-13.302 -6.003)"/><path id="path1-2" data-name="path1" class="cls-14" d="M426.06 394.429a25.23 25.23 0 0 0-.065-31.361" transform="translate(-13.302 -6.003)"/></g><path class="cls-6" d="M109.179 152.875a1.307 1.307 0 0 1-1.308 1.307h-38.15a4.471 4.471 0 0 1-4.466-4.466v-4.903a4.471 4.471 0 0 1 4.466-4.466h38.15a1.307 1.307 0 0 1 0 2.614h-.791v8.607h.791a1.307 1.307 0 0 1 1.308 1.307zm5.599-15.53a1.307 1.307 0 0 1-1.308 1.307H80.72a4.158 4.158 0 0 1-4.153-4.153v-3.49a4.158 4.158 0 0 1 4.154-4.153h32.75a1.307 1.307 0 0 1 0 2.614h-.66v6.567h.66a1.307 1.307 0 0 1 1.307 1.307zm-34.057-1.308h29.476v-6.567H80.72a1.54 1.54 0 0 0-1.54 1.539v3.49a1.54 1.54 0 0 0 1.54 1.538zm35.605-24.999H64.133a1.307 1.307 0 1 0 0 2.615h1.122v11.179a2.3 2.3 0 1 0 2.615 0v-11.18h6.153v10.307a1.307 1.307 0 0 0 1.308 1.307h29.798a1.307 1.307 0 0 0 1.307-1.307v-10.306h9.89a1.307 1.307 0 1 0 0-2.615z" transform="translate(-13.302 -6.003)"/><text class="cls-15" transform="translate(48.674 173.55)">11 ВНЗ<tspan x="4.105" y="17.439">6 </tspan><tspan class="cls-16" x="17.393" y="17.439">м</tspan><tspan x="29.159" y="17.439">і</tspan><tspan class="cls-17" x="33.447" y="17.439">с</tspan><tspan x="41.951" y="17.439">т</tspan></text><path class="cls-6" d="M567.53 45.396h-1.825a8.464 8.464 0 1 0-11.16 0h-1.826a7.415 7.415 0 0 0-7.406 7.405v5.29h-8.464v-5.29a7.415 7.415 0 0 0-7.405-7.405h-1.826a8.464 8.464 0 1 0-11.16 0h-1.826a7.415 7.415 0 0 0-7.406 7.405v14.812a1.058 1.058 0 0 0 1.058 1.058h5.29v17.985a1.058 1.058 0 0 0 1.058 1.058h14.812a1.058 1.058 0 0 0 1.058-1.058V65.47a5.235 5.235 0 0 0 3.174 1.086h14.811a5.235 5.235 0 0 0 3.174-1.086v21.187a1.058 1.058 0 0 0 1.058 1.058h14.812a1.058 1.058 0 0 0 1.058-1.058V68.671h5.29a1.058 1.058 0 0 0 1.058-1.058V52.8a7.415 7.415 0 0 0-7.406-7.405zm-51.84-6.348a6.348 6.348 0 1 1 6.348 6.348 6.354 6.354 0 0 1-6.348-6.348zm24.333 25.39h-6.347a3.178 3.178 0 0 1-3.174-3.173v-8.464h-2.116v32.797h-5.29V66.555h-2.116v19.043h-5.29V52.801h-2.116v13.754h-4.232V52.8a5.296 5.296 0 0 1 5.29-5.29h14.812a5.296 5.296 0 0 1 5.29 5.29v6.348a1.058 1.058 0 0 0 1.058 1.058h4.231zm13.754-25.39a6.348 6.348 0 1 1 6.348 6.348 6.354 6.354 0 0 1-6.348-6.348zm19.043 27.507h-4.231V52.8h-2.116v32.797h-5.29V66.555h-2.116v19.043h-5.29V52.801h-2.116v8.464a3.178 3.178 0 0 1-3.174 3.174h-6.348v-4.232h4.232a1.058 1.058 0 0 0 1.058-1.058v-6.348a5.296 5.296 0 0 1 5.29-5.29h14.812a5.296 5.296 0 0 1 5.29 5.29z" transform="translate(-13.302 -6.003)"/><path class="cls-6" d="M555.583 26.655l-3.167-3.167-1.496 1.496 1.368 1.368h-8.04a1.055 1.055 0 0 0-.748.31l-2.426 2.426-2.426-2.426a1.055 1.055 0 0 0-.748-.31h-8.04l1.368-1.368-1.496-1.496-3.167 3.167a1.057 1.057 0 0 0 0 1.496l3.181 3.18 1.496-1.495-1.368-1.368h7.588l2.116 2.116-2.116 2.116h-4.844v2.116h5.282a1.055 1.055 0 0 0 .748-.31l2.426-2.426 2.426 2.426a1.057 1.057 0 0 0 .748.31h5.297V32.7h-4.86l-2.115-2.116 2.116-2.116h7.588l-1.368 1.368 1.496 1.496 3.181-3.181a1.057 1.057 0 0 0 0-1.496z" transform="translate(-13.302 -6.003)"/><text class="cls-18" transform="translate(474.279 107.793)">20 <tspan class="cls-19" x="24.471" y="0">к</tspan><tspan class="cls-20" x="33.821" y="0">омпаній-</tspan><tspan x="12.107" y="19.768">па</tspan><tspan class="cls-21" x="32.329" y="19.768">р</tspan><tspan class="cls-22" x="43.418" y="19.768">т</tspan><tspan x="51.405" y="19.768">нерів</tspan></text><path class="cls-23" d="M259.914 577.909l18.773 46.57"/><path class="cls-24" d="M306.721 696.718l73.092 51.658"/><path class="cls-25" d="M168.698 724.996l78.026-34.05"/><path class="cls-26" d="M264.785 563.166a1.474 1.474 0 1 0 1.484 1.474 1.482 1.482 0 0 0-1.484-1.474z" transform="translate(-13.302 -6.003)"/><circle class="cls-26" cx="257.726" cy="558.637" r="1.478"/><ellipse class="cls-26" cx="245.242" cy="558.637" rx="1.479" ry="1.474"/><path class="cls-26" d="M279.756 544.71c-6.678 0-12.098 3.744-12.213 8.378a15.036 15.036 0 0 1 4.545 1.514 1.52 1.52 0 0 1-.06-.276 1.483 1.483 0 0 1 2.966 0 1.455 1.455 0 0 1-1.139 1.408 8.426 8.426 0 0 1 3.456 5.865 17.492 17.492 0 0 0 2.445.171 17.123 17.123 0 0 0 2.333-.158l1.709-.237.677 1.587a8.296 8.296 0 0 1 .353 1.099 6.02 6.02 0 0 0 .154-1.52l-.046-1.508 1.373-.619c3.56-1.606 5.68-4.285 5.68-7.175 0-4.706-5.476-8.53-12.233-8.53zm.003 11.09a1.474 1.474 0 1 1 1.478-1.474 1.477 1.477 0 0 1-1.478 1.474zm6.237 0a1.474 1.474 0 1 1 1.47-1.474 1.476 1.476 0 0 1-1.47 1.474z" transform="translate(-13.302 -6.003)"/><path class="cls-26" d="M273.217 529.649a30.012 30.012 0 1 0 30.008 30.008 30.007 30.007 0 0 0-30.008-30.008zm14.026 32.826c.046 1.83-.464 5.917-5.799 7.576 0 0 2.116-3.463.945-6.2a19.206 19.206 0 0 1-2.633.19 18.289 18.289 0 0 1-2.574-.197c-1.023 4.423-6.154 7.8-12.397 7.8a16.39 16.39 0 0 1-2.294-.165c-1.017 2.39.813 5.397.813 5.397-4.634-1.435-5.078-5.002-5.026-6.589-3.66-1.645-6.111-4.627-6.111-8.036 0-5.2 5.647-9.4 12.618-9.4.174 0 .336.033.517.04.253-5.8 6.618-10.453 14.454-10.453 8.007 0 14.504 4.838 14.504 10.801 0 3.93-2.827 7.346-7.017 9.236z" transform="translate(-13.302 -6.003)"/><path class="cls-3" d="M467.304 576.122a2.754 2.754 0 0 1 1.48 2.416v19.635l6.405 6.404a2.77 2.77 0 0 1 0 3.93 2.769 2.769 0 0 1-3.926 0l-8.043-8.037v-21.932a2.763 2.763 0 0 1 1.484-2.416 22.39 22.39 0 1 0 2.6 0z" transform="translate(-13.302 -6.003)"/><path class="cls-3" d="M466 549.464a48.919 48.919 0 1 0 48.92 48.92 48.923 48.923 0 0 0-48.92-48.92zm0 76.868a27.948 27.948 0 1 1 27.945-27.942 27.95 27.95 0 0 1-27.944 27.942z" transform="translate(-13.302 -6.003)"/><path class="cls-27" d="M405.345 781.208h51.907v-32.49h-51.907zm34.293-19.16h4.77v12.598h-4.77zm-7.148 5.246h4.772v7.352h-4.772zm-7.145-15.08h4.759v22.432h-4.76zm-7.135 6.938h4.749v15.494h-4.749zm0 17.258h26.197v1.297H418.21z" transform="translate(-13.302 -6.003)"/><path class="cls-27" d="M431.309 723.535a48.922 48.922 0 1 0 48.922 48.926 48.926 48.926 0 0 0-48.922-48.926zm30.472 56.146a5.809 5.809 0 0 1-5.815 5.806h-15.624l8.975 15H413.29l8.984-15h-15.633a5.809 5.809 0 0 1-5.815-5.806v-29.435a5.814 5.814 0 0 1 5.815-5.812h49.325a5.814 5.814 0 0 1 5.815 5.812z" transform="translate(-13.302 -6.003)"/><path class="cls-2" d="M53.408 711.95a6.956 6.956 0 0 1-3.798 2.961 9.877 9.877 0 0 1 4.535 2.81 7.365 7.365 0 0 1 2.946-1.585 5.437 5.437 0 0 1-3.683-4.187z" transform="translate(-13.302 -6.003)"/><path class="cls-2" d="M47.698 691.492a23.304 23.304 0 1 0 23.3 23.3 23.3 23.3 0 0 0-23.3-23.3zm6.273 36.781H32.516c.099-6.615 3.752-12.098 8.6-13.362a6.96 6.96 0 1 1 9.05-7.18 5.43 5.43 0 1 1 6.01 8.405c3.774.98 6.625 5.259 6.707 10.413h-9.07c.065.566.144 1.138.158 1.724z" transform="translate(-13.302 -6.003)"/><path class="cls-3" d="M584.817 592.443a35.85 35.85 0 1 0 35.85 35.853 35.849 35.849 0 0 0-35.85-35.853zm-13.451 22.399h26.901a4.522 4.522 0 0 1 2.143.566l-15.6 13.638-15.577-13.638a4.424 4.424 0 0 1 2.133-.566zm-4.483 22.413v-17.93a4.396 4.396 0 0 1 .701-2.377l11.193 9.795-11.314 12.677a4.413 4.413 0 0 1-.58-2.166zm31.384 4.489h-26.901a4.435 4.435 0 0 1-2.363-.685l11.47-12.835 3.606 3.16a1.11 1.11 0 0 0 .73.27 1.155 1.155 0 0 0 .742-.27l3.61-3.16 11.47 12.835a4.352 4.352 0 0 1-2.364.684zm4.483-4.49a4.413 4.413 0 0 1-.58 2.166l-11.324-12.67 11.216-9.802a4.559 4.559 0 0 1 .688 2.377z" transform="translate(-13.302 -6.003)"/><path class="cls-27" d="M72.376 552.555H60.351a2.33 2.33 0 0 0-2.337 2.33v1.744h16.702v-1.744a2.334 2.334 0 0 0-2.34-2.33z" transform="translate(-13.302 -6.003)"/><path class="cls-27" d="M66.354 524.199a48.919 48.919 0 1 0 48.919 48.919 48.92 48.92 0 0 0-48.92-48.919zm29.505 68.705a3.877 3.877 0 0 1-3.874 3.89H40.749a3.888 3.888 0 0 1-3.897-3.89v-32.398a3.882 3.882 0 0 1 3.897-3.877H54.91v-1.744a5.441 5.441 0 0 1 5.44-5.437h12.025a5.447 5.447 0 0 1 5.437 5.437v1.744h14.172a3.87 3.87 0 0 1 3.874 3.877z" transform="translate(-13.302 -6.003)"/><path class="cls-2" d="M154.201 733.38a10.292 10.292 0 0 0-9.333 14.579 10.282 10.282 0 1 0 9.333-14.58z" transform="translate(-13.302 -6.003)"/><path class="cls-2" d="M146.339 702.535a48.922 48.922 0 1 0 48.92 48.926 48.928 48.928 0 0 0-48.92-48.926zm-4.72 70.061a1.618 1.618 0 0 1-.793.87 1.534 1.534 0 0 1-1.181.045l-1.287-.474a10.096 10.096 0 0 1-1.935 2.087l.569 1.237a1.551 1.551 0 0 1-.747 2.06l-1.576.718a1.543 1.543 0 0 1-2.044-.757l-.573-1.244a9.612 9.612 0 0 1-2.843.112l-.48 1.283a1.533 1.533 0 0 1-1.976.909l-1.629-.593a1.51 1.51 0 0 1-.862-.81 1.456 1.456 0 0 1-.046-1.177l.464-1.284a10.153 10.153 0 0 1-2.08-1.922l-1.237.572a1.554 1.554 0 0 1-2.05-.763l-.725-1.573a1.548 1.548 0 0 1 .747-2.047l1.251-.573a9.567 9.567 0 0 1-.105-2.837l-1.29-.48a1.552 1.552 0 0 1-.87-.797 1.573 1.573 0 0 1-.045-1.178l.595-1.626a1.592 1.592 0 0 1 1.998-.921l1.27.48a9.949 9.949 0 0 1 1.932-2.093l-.572-1.237a1.555 1.555 0 0 1 .763-2.054l1.57-.717a1.538 1.538 0 0 1 2.044.756l.579 1.238a9.957 9.957 0 0 1 2.827-.112l.474-1.277a1.595 1.595 0 0 1 1.991-.915l1.623.599a1.557 1.557 0 0 1 .915 1.988l-.468 1.277a10.047 10.047 0 0 1 2.084 1.928l1.237-.572a1.544 1.544 0 0 1 2.047.763l.734 1.567a1.552 1.552 0 0 1-.764 2.054l-1.24.572a9.57 9.57 0 0 1 .112 2.837l1.283.474a1.547 1.547 0 0 1 .915 1.981zm32.717-23.05l-1.013 2.731a2.59 2.59 0 0 1-3.324 1.54l-2.156-.81a16.266 16.266 0 0 1-3.248 3.509l.95 2.086a2.592 2.592 0 0 1-1.263 3.456l-2.646 1.218a2.604 2.604 0 0 1-3.446-1.277l-.944-2.08a16.256 16.256 0 0 1-4.782.178l-.794 2.152a2.594 2.594 0 0 1-1.355 1.461 2.552 2.552 0 0 1-1.992.08l-2.731-1.008a2.601 2.601 0 0 1-1.53-3.344l.8-2.146a16.783 16.783 0 0 1-3.516-3.238l-2.08.954a2.608 2.608 0 0 1-3.449-1.27l-1.224-2.653a2.601 2.601 0 0 1 1.287-3.442l2.083-.954a16.17 16.17 0 0 1-.184-4.773l-2.166-.802a2.609 2.609 0 0 1-1.53-3.331l1.004-2.738a2.667 2.667 0 0 1 3.34-1.534l2.156.81a16.343 16.343 0 0 1 3.242-3.522l-.968-2.086a2.608 2.608 0 0 1 1.274-3.443l2.646-1.211a2.568 2.568 0 0 1 3.436 1.27l.977 2.08a16.124 16.124 0 0 1 4.766-.178l.8-2.158a2.66 2.66 0 0 1 3.34-1.54l2.721 1.006a2.593 2.593 0 0 1 1.534 3.337l-.793 2.16a16.381 16.381 0 0 1 3.511 3.244l2.09-.967a2.613 2.613 0 0 1 3.45 1.277l1.204 2.64a2.588 2.588 0 0 1-1.273 3.449l-2.077.954a16 16 0 0 1 .171 4.779l2.162.79a2.613 2.613 0 0 1 1.54 3.343z" transform="translate(-13.302 -6.003)"/><path class="cls-2" d="M130.252 761.36a6.115 6.115 0 0 0 .01 12.23 6.043 6.043 0 0 0 2.544-.566 6.113 6.113 0 0 0-2.554-11.664z" transform="translate(-13.302 -6.003)"/><path class="cls-25" d="M52.02 716.885l51.101 18.43"/><path class="cls-28" d="M315.136 650.353l100.562-43.199M489.329 603.663l50.366 13.631"/><path class="cls-24" d="M88.099 591.495l155.666 58.858"/><path class="cls-29" d="M292.733 622.037a48.92 48.92 0 1 0 48.92 48.926 48.924 48.924 0 0 0-48.92-48.926zm-4.032 18.246a5.326 5.326 0 0 1 3.897-1.626 5.15 5.15 0 0 1 3.84 1.626 5.663 5.663 0 0 1 0 7.8 5.125 5.125 0 0 1-3.84 1.626 5.522 5.522 0 0 1-3.897-9.426zm16.05 33.477a2.258 2.258 0 0 1-1.023 2.074 1.739 1.739 0 0 1-2.027 0 2.31 2.31 0 0 1-.974-2.074v-15.738h-1.297v42.502c0 1.83-.895 2.731-2.656 2.731-1.783 0-2.675-.902-2.675-2.731v-25.21h-2.722v25.21c0 1.83-.892 2.731-2.676 2.731-1.77 0-2.659-.902-2.659-2.731v-42.502h-1.297v15.87a1.893 1.893 0 0 1-.97 1.817 2.109 2.109 0 0 1-2.018 0 1.868 1.868 0 0 1-1.04-1.817v-16.515a5.648 5.648 0 0 1 1.876-4.423 7.039 7.039 0 0 1 4.874-1.685h10.529a6.854 6.854 0 0 1 4.946 1.75 5.953 5.953 0 0 1 1.81 4.49z" transform="translate(-13.302 -6.003)"/><text class="cls-30" transform="translate(17.243 880.275)">Б<tspan class="cls-31" x="19.11" y="0">і</tspan><tspan x="27.439" y="0">льше 20 різних надиха</tspan><tspan class="cls-32" x="369.033" y="0">ю</tspan><tspan x="393.357" y="0">чих спі</tspan><tspan class="cls-33" x="497.201" y="0">к</tspan><tspan class="cls-34" x="513.755" y="0">ерів</tspan></text></svg>