<svg id="Шар_1" data-name="Шар 1" xmlns="http://www.w3.org/2000/svg" viewBox="0 0 514.53 294"><defs><style>.cls-1{fill:#f2f2f2}.cls-2{fill:#e6e6e6}.cls-3{fill:#e6ffe6}.cls-4{fill:#bca9a9}.cls-5{font-size:7px;fill:#666;font-family:MyriadPro-Regular,Myriad Pro}.cls-6{letter-spacing:-.01102em}.cls-7{letter-spacing:-.00391em}.cls-8{letter-spacing:.00893em}.cls-9{letter-spacing:.00014em}.cls-10{letter-spacing:-.0159em}.cls-11{letter-spacing:-.00307em}.cls-12{letter-spacing:.006em}.cls-13{letter-spacing:-.006em}.cls-14{fill:#e83269}.cls-15{fill:#fff}</style></defs><title>map</title><path class="cls-1" d="M89.75 0l125 198-164 82 3 7 164-81 37 63 7-5-35-63 58-32-3-6-58 31-122-194h-12z"/><g id="Polygons"><path class="cls-1" d="M402.77 293.925l79.46-48.69-24.31-39.41-8.9-11.66-18.54 11.5-9.67-9.75-30.67-2.9-39.72 24.39 52.34 76.53z" transform="translate(-.25)" id="park_fill" data-name="park fill"/><g id="car_park_fill" data-name="car park fill"><path class="cls-2" d="M350.42 143.725l-23.69 15.76 13.63 22.82-14.39 9.01-24.62-36.14-1.11-1.62 41.15-24.86 2.12 4.32 6.91 10.7zM416.76 100.185l11.8-7.33 4.73-2.93 2.21-1.08 10.51 18.05.77 1.41.49 1-16.19 10.28-1.74.86-12.57-20.25zM66 12l2.19 3.395L113 89l13-9L80 8" transform="translate(-.25)"/></g><g id="grass_fill" data-name="grass fill"><path class="cls-3" d="M294.31 142.055l1.71 1 1.61-.31 1.16-1.44v-1.57l-1.12-1.4-1.91-.29-1.3.77-.65 1.87zM279.01 116.925l1.71 1 1.61-.32 1.16-1.43v-1.57l-1.12-1.41-1.91-.28-1.29.77-.65 1.87.5 1.37zM318.97 128.215l1.71 1.01 1.61-.32 1.16-1.43v-1.58l-1.12-1.4-1.91-.28-1.29.77-.65 1.87.5 1.37zM322.61 134.045l1.71 1.01 1.61-.32 1.16-1.44v-1.57l-1.12-1.4-1.91-.28-1.29.76-.65 1.87.5 1.37zM283.27 122.875l1.71 1 1.61-.31 1.16-1.44v-1.57l-1.12-1.4-1.91-.29-1.29.77-.65 1.87.5 1.37zM312.77 131.245l1.71 1.01 1.61-.32 1.16-1.43v-1.58l-1.12-1.4-1.91-.28-1.3.77-.65 1.87.5 1.37zM247.93 66.405l1.71 1.01 1.61-.32 1.16-1.44v-1.57l-1.12-1.4-1.91-.28-1.29.76-.66 1.87.5 1.37zM255.7 78.915l1.71 1 1.61-.31 1.16-1.44v-1.57l-1.12-1.4-1.91-.29-1.3.77-.65 1.87zM310.83 141.205l1.71 1.01 1.61-.32 1.16-1.43v-1.58l-1.12-1.4-1.91-.28-1.29.77-.65 1.87.5 1.37zM259.71 85.105l1.71 1.01 1.61-.32 1.16-1.44v-1.57l-1.12-1.4-1.91-.28-1.29.76-.66 1.87.5 1.37zM252 72.935l1.71 1.01 1.61-.32 1.16-1.43v-1.58l-1.12-1.4-1.91-.28-1.3.77-.65 1.87.5 1.37zM317.02 137.685l1.71 1.01 1.61-.32 1.16-1.43v-1.58l-1.12-1.4-1.91-.28-1.29.77-.66 1.87.5 1.37zM272.17 91.705l21.61 35.26 10.47-6.26-21.53-35.32-10.55 6.32zM271.36 104.415l1.71 1 1.61-.31 1.16-1.44v-1.57l-1.12-1.4-1.91-.29-1.3.77-.65 1.87zM295.84 130.325l6.26 10.21 10.44-6.3-6.26-10.22-10.44 6.3zM298.44 148.615l1.71 1 1.61-.31 1.16-1.44v-1.57l-1.12-1.4-1.91-.29-1.3.77-.65 1.87zM228.98 35.085l1.71 1 1.61-.32 1.16-1.43v-1.58l-1.12-1.4-1.91-.28-1.29.77-.65 1.87.5 1.37zM304.64 144.975l1.71 1.01 1.61-.32 1.16-1.43v-1.58l-1.12-1.4-1.91-.28-1.29.77-.65 1.87.5 1.37zM233.11 41.275l1.71 1 1.61-.31 1.16-1.44v-1.57l-1.12-1.4-1.91-.29-1.29.77-.66 1.87.5 1.37zM236.76 47.705l1.71 1 1.61-.31 1.16-1.44v-1.57l-1.12-1.4-1.91-.29-1.29.77-.66 1.87.5 1.37zM249.23 54.285l21.16 34.52 10.47-6.25-21.16-34.52zM275.01 110.725l1.71 1.01 1.61-.32 1.16-1.43v-1.58l-1.12-1.4-1.91-.28-1.3.77-.65 1.87.5 1.37zM240.97 40.805l6.26 10.22 10.45-6.3-6.26-10.21-10.45 6.3zM178.76 177.755l5.476-3.52 9.294 18.77-3.64 1.628-11.12-16.888zM130.18 88.905l1.14-.71 2.87 4.65L159 132l-5.1 2.525-24.08-38.94 3.23-2.02-2.88-4.65zM161.37 136.675L183 171l-6 3-21-35M30.32 120.935l4.07 6.64 14.01-8.58-4.07-6.64zM56.17 104.125l4.07 6.64 14.01-8.58-4.07-6.64zM245.86 69.255l2.14 3.85-6.79 3.76-2.14-3.85zM269.12 122.315l7.04-4.19 4 6.71-7.04 4.19zM269.79 107.555l2.15 3.95-6.69 3.65-2.15-3.95 6.7-3.64zM252.12 78.995l4.08 7.79-6.45 3.39-4.09-7.79zM291.61 273.035l7.99 12.66 37.23-21.94-8.33-13.49-36.89 22.77zM434 294l39.82-24.895 1.51-6.49 9.68-12.65-2.77-4.73-79.46 48.69M378.96 111.835l21.15 37.77 32.91-19.4.21-3.27-3.9-6.5-12.57-20.25 11.8-7.33.76-2.97-.21-3.27-2.12-2.38-2.18-.71-45.84 28.31zM352.96 128.035l35.85 5.48-12.38-20.11zM222.46 45.535l3.42 5.7 6.53-3.91-3.42-5.71zM217.34 37.025l3.42 5.7 6.53-3.92-3.42-5.7zM306.93 108.125l1.71 1.01 1.61-.32 1.16-1.43v-1.58l-1.12-1.4-1.91-.28-1.3.77-.65 1.87.5 1.37zM238.79 37.515l1.71 1.01 1.61-.32 1.16-1.43v-1.58l-1.12-1.4-1.91-.28-1.3.77-.65 1.87.5 1.37zM303.09 102.175l1.71 1.01 1.61-.32 1.16-1.43v-1.58l-1.12-1.4-1.91-.28-1.3.77-.65 1.87.5 1.37zM272.41 52.045l1.71 1.01 1.61-.32 1.16-1.43v-1.58l-1.12-1.4-1.91-.28-1.3.77-.65 1.87.5 1.37zM289.32 93.345l1.71 1.01 1.61-.32 1.16-1.43v-1.58l-1.12-1.4-1.91-.28-1.3.77-.65 1.87.5 1.37zM266.4 55.545l1.71 1.01 1.61-.32 1.16-1.43v-1.58l-1.12-1.4-1.91-.28-1.3.77-.65 1.87.5 1.37zM295.4 89.925l1.71 1.01 1.61-.32 1.16-1.43v-1.58l-1.12-1.4-1.91-.28-1.3.77-.65 1.87.5 1.37zM268.35 45.625l1.71 1.01 1.61-.32 1.16-1.43v-1.58l-1.12-1.4-1.91-.28-1.3.77-.65 1.87.5 1.37zM291.98 83.355l1.71 1.01 1.61-.32 1.16-1.43v-1.58l-1.12-1.4-1.91-.28-1.3.77-.65 1.87.5 1.37zM260.74 32.895l1.71 1.01 1.61-.32 1.16-1.43v-1.58l-1.12-1.4-1.91-.28-1.3.77-.65 1.87.5 1.37zM287.99 76.995l1.71 1.01 1.61-.32 1.16-1.43v-1.58l-1.12-1.4-1.91-.28-1.3.77-.65 1.87.5 1.37zM254.87 36.325l1.71 1.01 1.61-.32 1.16-1.43v-1.58l-1.12-1.4-1.91-.28-1.3.77-.65 1.87.5 1.37zM280.03 64.345l1.71 1.01 1.61-.32 1.16-1.43v-1.58l-1.12-1.4-1.91-.28-1.3.77-.65 1.87.5 1.37zM276.39 58.335l1.71 1.01 1.61-.32 1.16-1.43v-1.58l-1.12-1.4-1.91-.28-1.3.77-.65 1.87.5 1.37zM246.83 23.745l1.71 1.01 1.61-.32 1.16-1.43v-1.58l-1.12-1.4-1.91-.28-1.3.77-.65 1.87.5 1.37zM270.38 61.695l1.71 1.01 1.61-.32 1.16-1.43v-1.58l-1.12-1.4-1.91-.28-1.3.77-.65 1.87.5 1.37zM244.87 33.735l1.71 1.01 1.61-.32 1.16-1.43v-1.58l-1.12-1.4-1.91-.28-1.3.77-.65 1.87.5 1.37zM314.93 120.375l1.71 1.01 1.61-.32 1.16-1.43v-1.58l-1.12-1.4-1.91-.28-1.3.77-.65 1.87.5 1.37zM299.31 95.795l1.71 1.01 1.61-.32 1.16-1.43v-1.58l-1.12-1.4-1.91-.28-1.3.77-.65 1.87.5 1.37zM250.75 30.035l1.71 1.01 1.61-.32 1.16-1.43v-1.58l-1.12-1.4-1.91-.28-1.3.77-.65 1.87.5 1.37zM297.36 105.855l1.71 1.01 1.61-.32 1.16-1.43v-1.58l-1.12-1.4-1.91-.28-1.3.77-.65 1.87.5 1.37zM256.82 26.335l1.71 1.01 1.61-.32 1.16-1.43v-1.58l-1.12-1.4-1.91-.28-1.3.77-.65 1.87.5 1.37zM293.23 99.145l1.71 1.01 1.61-.32 1.16-1.43v-1.58l-1.12-1.4-1.91-.28-1.3.77-.65 1.87.5 1.37zM262.35 49.105l1.71 1.01 1.61-.32 1.16-1.43v-1.58l-1.12-1.4-1.91-.28-1.3.77-.65 1.87.5 1.37zM264.44 39.405l1.71 1.01 1.61-.32 1.16-1.43v-1.58l-1.12-1.4-1.91-.28-1.3.77-.65 1.87.5 1.37zM284.29 70.775l1.71 1.01 1.61-.32 1.16-1.43v-1.58l-1.12-1.4-1.91-.28-1.3.77-.65 1.87.5 1.37zM258.43 42.895l1.71 1.01 1.61-.32 1.16-1.43v-1.58l-1.12-1.4-1.91-.28-1.3.77-.65 1.87.5 1.37zM301.46 112.025l1.71 1.01 1.61-.32 1.16-1.43v-1.58l-1.12-1.4-1.91-.28-1.3.77-.65 1.87.5 1.37zM277.93 74.475l1.71 1.01 1.61-.32 1.16-1.43v-1.58l-1.12-1.4-1.91-.28-1.3.77-.65 1.87.5 1.37zM274.08 68.055l1.71 1.01 1.61-.32 1.16-1.43v-1.58l-1.12-1.4-1.91-.28-1.3.77-.65 1.87.5 1.37zM240.96 27.515l1.71 1.01 1.61-.32 1.16-1.43v-1.58l-1.12-1.4-1.91-.28-1.3.77-.65 1.87.5 1.37zM310.88 114.155l1.71 1.01 1.61-.32 1.16-1.43v-1.58l-1.12-1.4-1.91-.28-1.3.77-.65 1.87.5 1.37zM234.53 31.155l1.71 1.01 1.61-.32 1.16-1.43v-1.58l-1.12-1.4-1.91-.28-1.3.77-.65 1.87.5 1.37z" transform="translate(-.25)"/><path class="cls-3" d="M343.51 133.035l5.7-3.47 41.09 6.8 21.27 37.25 2.02 1.45 18.37 6.73 8.32.65 8.75 11.72-18.54 11.5-9.67-9.75-30.67-2.9-39.72 24.39-7.71-11.23 8.46-4.45-3.17-6.03-8.46 4.45-5.73 2.39-7.86-11.19 14.39-9.01-13.63-22.82 23.69-15.76-6.91-10.7zM446 106.895l45.41-28.84-.45-1.58-9.02-17.21-2.18-3.15-5.49-2.25-41.71 25.33-.9 2.78 3.82 6.87 10.51 18.05zM499.73 207.315l7.27-15.93-7.18-4.35 7.61-18.38 7.35-9.15-15.73-24.9-27.34 16.47-4.99 3.83-3.13 4.44v40.25l-1.92 4.88 3.56 6.19 5.49-3.59 19.4-5.53 9.62 5.77z" transform="translate(-.25)"/><path class="cls-3" d="M473.66 208.565l16.07-4.28 8.89 5.13-9.74 22.31-4 10.51-18.3-29.6 7.08-4.07zM443.24 179.715l15.7 20.6 2.39-3.39.13-31.84-3.46-5.78-9.99 6.28-2.14 8.98zM64.18 30.525l-8.31-13.35.14-2.25 2.6-1.62 3.02.85 48.11 76.9-5.1 3.27-9.55-14.49-30.92-49.3zM46.61 43.435l27.74 44.4 5.47-3.24-28-44.09-5.22 2.93zM26.81 135.165l3.74 5.87 22.97-14.62-3.74-5.87zM61.71 112.435l3.44 5.57 35.75-22.24-9.09-13.73-9.76 6.09-1.46.94 5.19 8.65-24.07 14.71zM45.71 41.675l5.16-2.72 10.11-6.41.19-2.35-9.15-14.12-16.01 10.09 9.7 15.51zM329.74 131.585l4.16-2.54-72.03-117.47-4.16 2.54 72.03 117.47zM285.77 148.115l6.4-3.66 3.69 6.45-6.4 3.66zM335.89 128.065l4.16-2.54-72.03-117.47-4.16 2.54 72.03 117.47zM303.42 200.045l7.76-5.56-2.41-22.55-11.33-16.69-13.36 8.07 6.25 11.23 3.82 6.25-1.83 1.12 11.08 18.12zM402.77 47.075l7.22 11.17 1.52-1.67 1.22-2.47.11-2.4-.84-2.58-1.41-1.82-2.28-1.03h-3.27l-2.28.8z" transform="translate(-.25)"/></g><g id="forest_fill" data-name="forest fill"><path class="cls-3" d="M196.75 256.815l20.1 33.76 1.7-1.16-20.13-33.81zM202.38 252.715l20.06 34.04 1.7-1.16-20.09-34.09zM214.51 243.895l20.41 34.34 1.7-1.16-20.44-34.39-1.67 1.21zM208.08 248.575l20.3 34.12 1.7-1.16-20.33-34.17-1.67 1.21zM33.904 146.7l1.751 3.02 93.48-57.2-1.752-3.01z" transform="translate(-.25)"/></g><g id="building_fill" data-name="building fill"><path class="cls-2" d="M230.22 107.015l-2.37 10.22 11.07 2.58 2.37-10.23zm3.24-11.7l-10.46 6.53-5.37 3.35 1.96 3.14-2.42 1.5-2.27-3.63-3.99 2.49-.55-.88-2.71 1.69.98 1.57-22.75 14.19 17.11 27.41 21.54-13.44-1.15-1.85.89-.55 4.03 6.45 2.68-1.68-.95-1.53.85-.53.51.83 3.6-2.25-2-3.21-.99.62-2.44-3.9 3.16-1.97 1.54 2.68 4.9-2.82 11.02-7.08 2.52 3.8 4.46-2.56 1.85-1.15 4.06-2.54-4.84-7.76 10.11-6.3-4.4-7.04-1.67-2.69-2.02-3.24-2.75-4.41-9.98 6.23-4.96-7.96-4.23 2.64-2.35 1.46-3.77 2.35 1.26 2.02zm-33.47 29.27l1.26-1.01.99.42 1.13-.1.97-.54.27-1.02-.06-.86 4.25-2.64 9.58 16.09-3.87 2.48-.92-.7-1.13.16-.76.76-.38.96.11.81-1.83 1.07-4.2-6.94-1.02.54-1.18-1.77.97-.54-4.19-7.16zm37.39-23.13l9.33 15.29-6.3 4.2-4.7-1.17-.5 4.62-2.94 2.27-10.34-15.72 2.77-1.93 4.37 1.01 1.09-4.46 7.23-4.12zM210.27 57.225l-10.83 6.66-4.95 3.04 1.93 3.13-2.37 1.34-2.78-4.53-7.36 4.51 1.16 1.89-22.4 13.76 16.6 27.02 21.4-13.15-1.22-1.98 1.45-.89 4.15 6.75 2.5-1.53-.58-.95 4.14-2.54-2.04-3.32-.96.6-2.41-3.92 2.61-1.61 1.4 2.17 4.26-2.75 12.27-7.59 3.37 5.11 3.5-2.1 2.36-1.45 3.85-2.36-5.15-8.38 10.23-6.29-6.09-9.91-4.69-7.63-10.31 6.33-4.95-8.06-9.73 5.98 1.63 2.66zm-33.51 28.9l1.83-1.16.87.37.96-.17.35-.78-.04-.78 4.24-2.69 9.74 15.37-3.58 2.27-1.41-.6-1.41.22-.7 1.27.13 1.26-1.26.8-4.28-6.77-.91.58-.88-1.39.93-.59-4.58-7.22zm37.08-22.95l4.41 7.25 5.11 8.39-8.31 5.05-1.15-.49-1.22.35-.82.95.05 1.1-3.46 2.11-9.52-15.64 3.27-1.99 1.13.37 1.18-.13.73-.96-.1-1.06 8.7-5.3zM273.88 160.935l2.2 3.38 4.53-2.73 1.64-1 4.1-2.5-4.83-7.92 10.14-6.18-5.92-9.7-4.96-8.15-3.74 2.28-6.53 3.98-4.37-7.17-4.01 2.44-1.86 1.14-4.15 2.52 1.38 2.27-10.74 6.55-5.3 3.22 1.92 3.16-2.99 1.97-.6-.98.78-.47-2.99-4.92-3.93 2.4 1.05 1.73-.6.37-1.45-2.38-2.44 1.48 2.31 3.78-5.08 3.1-17.73 10.8 8.61 14.14 7.92 12.99 17.21-10.48 4.58-2.8-1.05-1.71 1.25-.76L251 179l2-1-1-1 1.19-.455.46.76L257 175l-.56-1.525-.93.57-2.68-4.4 3.67-2.23 1.92 3.15 4.67-2.85 10.78-6.76zm-49.78 2.11l1.83-1.16.87.37.96-.17.35-.78-.04-.78 4.24-2.69 9.74 15.37-3.58 2.27-1.41-.6-1.41.22-.7 1.27.13 1.26-1.26.8-4.28-6.77-.91.58-.88-1.39.93-.59-4.58-7.22zm36.87-23.16l4.41 7.25 5.11 8.39-8.31 5.05-1.15-.49-1.22.35-.82.95.05 1.1-3.46 2.1-9.52-15.63 3.27-2 1.13.37 1.18-.13.73-.96-.1-1.06 8.7-5.3zM294.13 258.635l3.6-2.27 3.91-2.41-5.25-8.51-2.07-3.36 1.3-.8.69 1.12 12.58-7.77-17.72-28.71-4.96 3.06-2.89-4.68-29.11 17.98 3.2 5.19-5.01 3.1 17.1 27.7 11.23-6.93-.43-.69 3.34-2.06 2.03 3.29 5.36 8.69 3.13-1.93zm-29.22-28.05l8.29-5 .99 1.65 4.21-2.53-1.12-1.86 9.05-5.45 9.93 16.48-2.37 1.43 1.99 3.29-3 1.81-1.99-3.29-10.5 6.32 1.62 2.7-3.44 2.07-1.18-1.96-2.24 1.35-10.25-17.01zM474.07 32.515l-.61 2.34 7.02 12.2 1.64 1.15 5.94-3.42 1.73-.99 4.81-2.77.56-1.87-7.45-12.93-2.18-.32-11.46 6.59zm4.39 4.22l7.66-4.76 4.73 7.61-7.66 4.76zM458.47 121.915l-2.9 1.8-3.44 2.15-.94-1.5-14.81 9.24.98 1.38-28.52 17.59 6.93 11.5 8.74-5.19.87 1.41-1.24 1.78-.8 6.41 4.09 5.76 6.68.96 2.99-1.7 2.67-1.56 1.29-6.7.2-1.46 2.9-1.87-2.21-3.17-2.95 1.53-1.91-1.84-6.66-1.39-.81-1.35 32.85-19.81 3.24-2.16-7.22-11.81zM338.07 71.045l7.9-4.76 18.52-11.61 14.89-9.33 4.26-2.65 8.03-4.99-9.6-15.45-53.6 33.33 9.61 15.45z" transform="translate(-.25)"/><path class="cls-2" d="M233.11 86.335l2.36-1.45 2.84 4.59-2.35 1.46-2.85-4.6zM291 179l-13.97 8.525-2.67-4.36-6.59 4.03-2.18-3.55-3.57 2.19 3.39 5.53 2.77-1.7 1.27 2.08-11.3 6.91-4.13-6.76-7.55 4.62-1.73-2.82-2.82 1.73 1.72 2.81-7.18 4.38 4.55 7.45-2.32 1.41 1.9 3.11 2.02-1.23 4.3 7.04 7.48-4.58 1.26 2.06 2.88-1.76-1.47-2.41 7.31-4.47-4.17-6.82 2.74-1.68-.49-.79 3.36-2.05 2.05 3.35 2.29-1.4-1.93-3.16 22.61-13.82 2.14 3.49L291 183l2-1M303.45 205.385l2.35-1.44 6.01-3.67 8.4 13.73 7.04 11.52 11.47-7.02 2.33 3.82-16.14 9.87-3.69 2.26-17.77-29.07zM339.56 200.135l3.17 6.03 8.46-4.45-3.17-6.03zM.28 58.775l9.8-6.11 13.77 22.12-4.64 2.89.88 1.41-3.86 2.4 11.14 17.9 5.91-3.68-4.35-6.97 14.2-8.84 4.17 6.7 7.2-4.49-11.18-17.94-8.88 5.53-14.43-23.19 14.16-8.82 28.28 45.43 1.38-.86 2.83 4.56-14.07 8.76-1.03-1.66-1.69 1.05 5.38 8.67-4.74 2.95-4.58 2.85-5.37-8.63-1.71 1.06.98 1.58-14.09 8.77-2.58-4.15.85-.53-19.93-32 .63-.4-1.11-1.77 4.13-2.57-7.48-12zM120.01 22.335l15.62-9.57 4.02 6.57-15.61 9.57zM127.18 34.795l15.67-9.61 4.37 7.11-15.68 9.62zM135.02 47.185l15.65-9.78 4.14 6.62-15.65 9.78zM294.13 258.635l1.66 2.69 3.6-2.28-1.66-2.68zM290.34 174.555l-1.46.89-8.28-13.87 1.64-1 8.1 13.97zM321.23 234.455l3.62 5.92 3.69-2.26-3.62-5.92-3.69 2.26zM260.28 128.785l1.86-1.14-3.13-5.11-1.85 1.15z" transform="translate(-.25)"/><path class="cls-2" d="M292.34 181.925l11.08 18.12.47.59 1.91 3.31-2.35 1.44-1.11-1.82-12.36-20.21 2.36-1.44zM38.16 163.465l12.11 12.86 10.52.32.53 24.02 10.09-.1.42-23.81 11.48-.1 11.48-12.75-7.65-6.38-10.52 10.52-20.19.11-11.82-11.1-6.45 6.42zM322.47 36.855l7.41 11.33 24.78-16.2-7.41-11.34zM351.18 18.765l7.2 11.04 24.68-16.11-7.2-11.04z" transform="translate(-.25)"/></g><path class="cls-4" d="M488.07 44.795l6.99 11.61 1.61-.98-6.87-11.63-1.73.99z" transform="translate(-.25)" id="building_fill1" data-name="building fill1"/></g><text class="cls-5" transform="rotate(58.216 -10.404 189.232)"><tspan class="cls-6">в</tspan><tspan class="cls-7" x="3.423" y="0">у</tspan><tspan x="6.692" y="0">ли</tspan><tspan class="cls-8" x="14.119" y="0">ц</tspan><tspan class="cls-9" x="18.031" y="0">я </tspan><tspan class="cls-10" x="22.987" y="0">С</tspan><tspan x="26.936" y="0">офії </tspan><tspan class="cls-11" x="40.025" y="0">К</tspan><tspan class="cls-9" x="43.798" y="0">ов</tspan><tspan class="cls-12" x="51.142" y="0">а</tspan><tspan x="54.558" y="0">левсь</tspan><tspan class="cls-13" x="71.735" y="0">к</tspan><tspan x="75.046" y="0">ої</tspan></text><path class="cls-2" d="M38.16 222.465l12.11 12.86 10.52.32.53 24.02 10.09-.1.42-23.81 11.48-.1 11.48-12.75-7.65-6.38-10.52 10.52-20.19.11-11.82-11.1-6.45 6.42z" transform="translate(-.25)"/><path class="cls-14" d="M216 115.5a.5.5 0 0 1-.416-.223l-5.143-7.714a.5.5 0 0 1-.058-.117 6.841 6.841 0 0 1-1.312-4.017 6.929 6.929 0 0 1 13.858 0 6.839 6.839 0 0 1-1.316 4.022.436.436 0 0 1-.054.112l-5.143 7.714a.5.5 0 0 1-.416.223zm0-16.071a3.983 3.983 0 0 0-2.62 6.998 4.232 4.232 0 0 0 .564.415 4.275 4.275 0 0 0 .617.308l.196.06a3.936 3.936 0 0 0 .488.143 3.689 3.689 0 0 0 1.427.012l.111-.023a3.941 3.941 0 0 0 1.85-.914 3.992 3.992 0 0 0-2.633-7z" transform="translate(-.25)"/><path class="cls-15" d="M216 97a6.4 6.4 0 0 1 5.114 10.286h.029L216 115l-5.143-7.714h.03A6.4 6.4 0 0 1 216 97m0 10.929a4.44 4.44 0 0 0 .756-.071c.059-.01.116-.023.175-.036a4.43 4.43 0 0 0 .63-.18l.07-.025a4.623 4.623 0 0 0 2.242-1.896 4.508 4.508 0 1 0-6.821 1.083 4.693 4.693 0 0 0 .63.464l.026.014a4.512 4.512 0 0 0 .667.332c.074.029.152.046.227.07a4.339 4.339 0 0 0 .545.159 4.51 4.51 0 0 0 .853.086M216 96a7.437 7.437 0 0 0-7.429 7.429 7.332 7.332 0 0 0 1.373 4.262.94.94 0 0 0 .081.15l5.143 7.714a1 1 0 0 0 1.664 0l5.143-7.715a.996.996 0 0 0 .084-.152 7.332 7.332 0 0 0 1.37-4.26A7.437 7.437 0 0 0 216 96zm-1.816 10.402a3.693 3.693 0 0 1-.474-.351 3.447 3.447 0 0 1-1.21-2.622 3.491 3.491 0 1 1 4.763 3.258l-.05.017a3.428 3.428 0 0 1-.492.14l-.133.028a3.184 3.184 0 0 1-1.253-.011 3.604 3.604 0 0 1-.413-.124 3.36 3.36 0 0 0-.137-.041l-.053-.016a3.5 3.5 0 0 1-.506-.253l-.042-.025z" transform="translate(-.25)"/></svg>