<svg id="Шар_1" data-name="Шар 1" xmlns="http://www.w3.org/2000/svg" viewBox="0 0 72 24"><defs><style>.cls-1{fill:none}.cls-2{fill:#fff}</style></defs><path class="cls-1" d="M24 0h24v24H24z"/><path class="cls-2" d="M30.62 10.79a15.149 15.149 0 0 0 6.59 6.59l2.2-2.2a.994.994 0 0 1 1.02-.24 11.407 11.407 0 0 0 3.57.57 1.003 1.003 0 0 1 1 1V20a1.003 1.003 0 0 1-1 1A16.999 16.999 0 0 1 27 4a1.003 1.003 0 0 1 1-1h3.5a1.003 1.003 0 0 1 1 1 11.36 11.36 0 0 0 .57 3.57 1.004 1.004 0 0 1-.25 1.02zM60 2a6.995 6.995 0 0 0-7 7c0 5.25 7 13 7 13s7-7.75 7-13a6.995 6.995 0 0 0-7-7zm0 9.5A2.5 2.5 0 1 1 62.5 9a2.5 2.5 0 0 1-2.5 2.5z"/><path class="cls-1" d="M48 0h24v24H48z"/><path class="cls-2" d="M20 4H4a1.997 1.997 0 0 0-1.99 2L2 18a2.006 2.006 0 0 0 2 2h16a2.006 2.006 0 0 0 2-2V6a2.006 2.006 0 0 0-2-2zm0 4l-8 5-8-5V6l8 5 8-5z"/><path class="cls-1" d="M0 0h24v24H0z"/></svg>