<svg id="Шар_1" data-name="Шар 1" xmlns="http://www.w3.org/2000/svg" viewBox="0 0 1245.9 1483"><defs><style>.cls-1{fill:#b50f4b}.cls-2{fill:#471744}.cls-3{fill:#131416}.cls-4{fill:#4d1f50}.cls-5{fill:#c00733}.cls-6{fill:#9a1e57}</style></defs><path class="cls-1" d="M1173.6 386.4q-.1 73.5-.1 146.9l-.2 591.7c0 2.2-.1 4.3-.1 6.5-6.3-.2-12.6-.6-18.9-1-23.9-1.2-47.8-1.2-71.7-1.3s-47.8 1.4-71.7 2.1q-.1-371.3-.3-742.5c0-.8.1-1.7.1-2.5 2.5.5 4.4-1.3 6.6-1.8 30-6.3 60.2-9.9 90.9-8.3 22.3 1.2 44.1 3.8 65.4 10.2zM225.6 386.4q-.1 82.7-.1 165.4-.1 286.6-.1 573.2c0 2.2-.1 4.3-.1 6.5-16.4-.7-32.9-1.6-49.3-2-37.6-.8-75.2 0-112.7 2-.1-47.3-.6-94.6-.4-141.9.9-198.8-.7-397.5-.1-596.3 0-2.3.1-4.7.1-7a273.7 273.7 0 0 1 48.8-8.7c16.9-1.5 33.7-2.5 50.7-1.4 21.5 1.4 42.7 3.9 63.2 10.2zM622.8 220.5c-66.3 0-132.6-.3-199 .1-133.1.7-266.3.4-399.4.7-4.5 0-8.5-1.4-12.4-3.1-7.6-3.4-12-10.3-11.6-17.6s6.4-14.5 14.7-17.1c20.3-6.2 40.7-12.2 61-18.3l324.8-98.3L618.8 1.1a13.8 13.8 0 0 1 8.7 0q19.7 6.3 39.5 12.2l244.2 73.5 317 95.7c4.7 1.4 9 3.3 12.5 6.9 7.3 7.4 7.3 17.1-.1 24.4a25.2 25.2 0 0 1-18 7.4q-175.7 0-351.4-.3c-65.6-.1-131.3-.5-196.9-.7h-51.5zm558.1-32.2l.3-.7-32.2-9.9L627.8 19.6a15.7 15.7 0 0 0-9.6.1L456.1 69.1 69.4 186.2l-4.1 1.3c28.8.8 57.3.7 85.8.8a33.1 33.1 0 0 0 9.8-1.4L332 135.4l286.4-86.1a15.4 15.4 0 0 1 9.7.1C660.3 59.7 693 68.3 725 79.1c11.4 3.8 23.2 6.6 34.7 10.1q158 47.1 315.8 94.7c5.5 1.7 10.9 4.3 16.8 4.3zm-942.5-.8l.2.8H280a31.9 31.9 0 0 0 9.8-1.5L617.7 85.4a17.8 17.8 0 0 1 11.1.1c102 31.5 204.2 62.5 305.9 95 24.4 7.8 48.6 7.9 73.4 7.2-13.4-4.3-26.9-8.4-40.3-12.5l-239.6-71.8L627.6 73a14.2 14.2 0 0 0-8.7 0l-125.2 37.6-208.8 62.8zM250.1 1203.3c0 7.3.1 14.7.1 22q0 126.2.1 252.4c0 4.6-1.3 5.7-5.8 5.7q-101-.2-201.9-.1c-3.3 0-5.4.1-5.3-4.5q.2-136.4.1-272.9c0-.8.1-1.7.2-2.5a83.7 83.7 0 0 1 8.4.7c14.9 1.9 29.8 4.5 44.7 5 27.2 1 54.4 2.9 81.6 1.1 8.6-.6 17.3-.2 25.9-1.1 17.3-1.8 34.6-3.9 51.9-5.8zM1197.7 1202.3c.9 1.6.4 3.3.4 4.9q0 135.2.1 270.3c0 4.4-.9 5.8-5.6 5.8q-101.2-.3-202.4-.1c-3.2 0-5-.1-5-4.3q.2-136.7 0-273.3c0-.8.1-1.7.2-2.5 5.3.5 10.6.9 15.9 1.6 18 2.4 36.1 5.1 54.2 5.4 14.4.2 28.8 1.3 43.2.8 27.1-1.1 54.1-2.1 81-5.6 6-.9 12.3-.2 18-3zM537.4 300.3l-4.5-.3H231.1l-5 .3-36.9-.2-126.7.2c-15.5-2.3-22.8-9.9-22.8-23.8 0-16 8.5-24.7 24.6-24.7h1111.6c6.6 0 12.8.7 18.4 4.9 8.6 6.5 9.5 18.5 6.8 28.8-2.2 8.5-11.3 14.5-21 14.8l-6 .2-46.9-.2-116.8.2-4.5-.2-300.9-.2c-1.7 0-3.3.2-5 .3h-60.8zM700.3 458.3l-26.5 4-54.1 7.8-20.3 2.7 48.8 76.9c3.4 5.3 3.4 5.4-2.4 7.8-17.4 7-34.7 14.4-52 21.5-18.8 7.8-37.7 15.6-56.6 23.2.1-5.7.1-11.3.1-17V391.6c0-1.8.1-3.7.1-5.5 22.7-6 45.7-8.9 69.1-10.1 10.3-.5 20.5-.2 30.8.1a251.9 251.9 0 0 1 35.1 3.8c9.3 1.6 18.5 3.6 27.7 5.4z" transform="translate(-.4 -.4)"/><path class="cls-2" d="M798.7 1048.7c-.4.2.3 0 0 0zM797.4 1049.3c-.2 0 0 .1 0 0zM513.2 1210.1c-.1 1.2 0 .1 0 0z" transform="translate(-.4 -.4)"/><path class="cls-2" d="M874.2 908.5c-8.4-10.3-16.4-21.7-27.8-28.8-6.6-4.1-14-10-21.2-8.3s-15 7.6-21.5 10.9l-32.2 16.3c-26.7 13.6-53 29-81.2 39.5l-129.1 48.4c-11.3 4.2-23.6 7.5-34.2 13.3-35.2 18.9-66.8 50.8-87.2 84.9-26.8 44.6-37.9 97.1-25.7 148.1s43.6 93.6 81.4 128.9c3-2.7-7.2-30-8.1-34.7-2.3-12.4-5.5-28.4-2.7-40.9 2.3-10.1 7.6-20.3 11.2-30l15.2-40.9c5.6-15 18.7-25.7 30.6-36 18.4-15.9 39.2-27.9 59.1-41.6 8.9-6.1 19-8.2 29-12.1 27.2-10.7 52.2-26.6 79.2-37.7 29.4-12.1 58.7-24.5 87.4-37.9 3.7-1.8 7-3.7 10.4-5.4l15.6-6.6c23.8-12.5 51.3-29.8 63-55.1s6.2-53-11.2-74.3z" transform="translate(-.4 -.4)"/><path class="cls-3" d="M1197.7 1202.3c-5.7 2.8-12 2.1-18 2.9-26.9 3.6-53.9 4.6-81 5.6-14.5.6-28.8-.6-43.2-.8-18.1-.3-36.2-3-54.2-5.4-5.3-.7-10.6-1.1-15.9-1.6 1.2-7.4 4.9-14 7.4-20.9 6-17 12.6-33.7 18.2-50.9 23.9-.7 47.7-2.1 71.7-2.1s47.8.1 71.7 1.3c6.3.3 12.6.8 18.9 1 3.9 8.9 6 18.4 9.1 27.5 4.8 14.6 10.1 29 15.3 43.4zM250.1 1203.3c-17.3 2-34.6 4.1-51.9 5.8-8.6.9-17.2.5-25.9 1.1-27.2 1.8-54.4-.1-81.6-1.1-15-.6-29.8-3.2-44.7-5a83.7 83.7 0 0 0-8.4-.7c.5-6.4 4-11.8 6.1-17.7 6.3-18.1 13.1-36.1 19.7-54.1 37.5-2 75.1-2.8 112.7-2 16.4.3 32.9 1.3 49.3 2 4.1 10.1 7.1 20.5 10.4 30.9s7.4 20.7 11.1 31.1c1.1 3.1 2.1 6.4 3.2 9.7zM1010.4 300.3l116.8-.2 46.9.2c0 1.2.1 2.3 0 3.5-.5 6.4.7 11.4 5.9 16.5 12.6 12.3 10.8 32.8-2.8 44.2a7.7 7.7 0 0 0-3.1 6.6c0 5.1.9 10.2-.6 15.3-21.3-6.3-43.1-9-65.2-10.2-30.8-1.6-61 2-90.9 8.3-2.2.5-4.1 2.2-6.6 1.8-.9-5-.3-10-.3-14.9a6.5 6.5 0 0 0-2.7-5.9c-16.7-13.1-16.6-36.2.1-49.3a5.8 5.8 0 0 0 2.6-5.4c-.2-3.5-.1-7-.1-10.5zM62.5 300.3l126.7-.2 36.9.2c0 .5.1 1 0 1.5-.4 7.3.4 13.2 6.6 19.3 12.2 12.1 10 32.3-3.3 43.4a8.2 8.2 0 0 0-3.2 7.1c-.1 4.9.8 9.9-.6 14.8-20.6-6.3-41.7-8.8-63.1-10.2-17-1.1-33.9-.1-50.7 1.4a273.7 273.7 0 0 0-48.8 8.7c-1.2-5.1-.4-10.2-.5-15.4a6.3 6.3 0 0 0-2.5-5.4c-16.7-13.5-16.6-35.8 0-49.3a5.9 5.9 0 0 0 2.5-5.5c-.2-3.4-.1-6.9 0-10.4zM700.2 385.5c-9.2-1.8-18.4-3.8-27.7-5.4a251.9 251.9 0 0 0-35.1-3.8c-10.3-.4-20.5-.6-30.8-.1-23.4 1.1-46.5 4.1-69.1 10.1a34.1 34.1 0 0 1-.2-4.5c.7-8.1-.7-14.4-7.4-20.8-12.4-11.6-10.5-32.4 2.8-43.4 3.9-3.2 5.2-6.3 4.7-10.9a55.1 55.1 0 0 1 0-6.5l101.8-.2 60.9.2a20.5 20.5 0 0 1 0 2.5c-.7 7 .9 12.3 6.5 17.7 12.3 11.9 10.7 32.4-2.7 43.8a9.3 9.3 0 0 0-3.7 8.4c.3 4.3.1 8.6 0 12.9z" transform="translate(-.4 -.4)"/><path class="cls-2" d="M814.3 1040.2c2.2-3.6 5.7-4.6 9.7-4.9-3 2.2-6.1 4.2-9.7 4.9zM799.6 1047.9c.3-1.9 1.8-1.4 3-1.5zM796.3 1049.4a2.2 2.2 0 0 1 2.2-1zM812.3 1041.3l1.3-.9c-.3.5-.5 1.1-1.3.9zM810.3 1042.3l1.2-.9c-.2.5-.4 1.2-1.2.9zM803.3 1046.2l1.5-.8zM798.3 1048.4l1.4-.7zM794.3 1050.3l1.7-.9z" transform="translate(-.4 -.4)"/><path class="cls-3" d="M541.1 1247.3c0-1 .1-2 .2-3 .3-4.5 2.1-6.2 7.1-6.2 48.5.2 96.9.1 145.4.1 6.5 0 6.5 0 6.6 6.7" transform="translate(-.4 -.4)"/><path class="cls-1" d="M536.8 995c-.1-3.5-.3-192.1.2-195.2s163.5-75 163.5-72.6 5.9 204.8 5.9 204.8-169.5 66.5-169.6 63z" transform="translate(-.4 -.4)"/><path class="cls-4" d="M924.7 426.7l-66.6 9.7L747.4 452l-47 6.3-26.5 4-54.1 7.8-20.3 2.7 48.8 76.9c3.4 5.3 3.4 5.4-2.4 7.8-17.4 7-34.7 14.4-52 21.5-18.8 7.8-37.7 15.6-56.6 23.2l-48.4 19.2c-22.2 8.7-44.7 16.6-66.5 26-33.9 14.7-67.2 30.6-97.6 51.9-25.3 17.8-46.6 39.2-59.5 67.9s-16 56.1-13.1 85.8c3.3 34.8 17.5 63.9 45.3 85.6s62.7 32.8 98.9 35.8a5.8 5.8 0 0 0 .2-.9l-.3-.3a71 71 0 0 1-23.7-10.2c-8-5.4-14-12.1-14-22.7 0-13.6 7.7-23.6 15.3-33.7l70.1-55.3 2.5-1.6c11.2-6.5 21.8-13.9 33.6-19.4 10.5-7.2 21.7-13.1 33.1-18.7l23.1-11.5 12.5-6.1c20.1-9.5 40.1-19.4 60.3-28.5s39.7-17 59.5-25.5c0 0 3.3-1.3 12.5-5.5a205.5 205.5 0 0 1 23.4-8.6c28.8-8.6 55.6-22.8 81.9-37.4 2.7-1.5 4-.7 5.9 1.1q25.9 26 52 51.9c1.2 1.2 2.2 2.9 4.3 3.4.5-1.6 1.1-3.2 1.5-4.7q20.7-82.2 41.2-164.4c9.2-37.1 19.1-74 27.5-111.3 2.2-10 6.1-19.6 6.8-30 1.9-1.6.2-3.8 1-5.5s.9-2.7-1.9-2.3z" transform="translate(-.4 -.4)"/><path class="cls-4" d="M536.8 840.5c-6.4 3-17.1-10.5-54.7-11.5-2.5-.1-42.3 21.5-71.2 43.8-27.1 21-38.8 36.1-38.8 36.1-19.6 21.6-18 39.3-6.1 49.2 8.6 7.2 24.5 13.8 30.2 16.4s140.7 4 140.7 4 6.3-141-.1-138z" transform="translate(-.4 -.4)"/><path class="cls-1" d="M608.9 1131.7h91l2.3-42.3-93.3 42.3z"/><path class="cls-1" d="M724.3 1203.2c-17.3 2-34.6 4.1-51.9 5.8-8.9.9-17.9.5-26.9 1.1a286.1 286.1 0 0 1-30.4.9c-20-.7-40.1-.7-60-3.5-10.7-1.5-21.5-2.2-32.2-3.3a18.6 18.6 0 0 0-6-.6c-3.1.2-2.7 5.3-2.7 5.3 0 51.6-.1 108.1-.2 159.8 0 1.8 1.9 5.1-2.4 5.1.1 34.7.2 69.3.1 104 0 4.1.9 5.3 5.1 5.3q101.2-.2 202.5 0c4.1 0 5.3-.9 5.3-5.1 0-64.7.2-129.3.2-194 0-26.8-.3-53.8-.5-80.8z" transform="translate(-.4 -.4)"/><path class="cls-5" d="M541.1 1247.3q0 86-.1 171.9c0 4.2 1.5 5.5 5.6 5.4q74-.1 147.9 0c5 0 6-1.7 5.9-6.3-.2-28.8-.1-57.6-.1-86.5v-87" transform="translate(-.4 -.4)"/><path class="cls-3" d="M700.4 1244.9v87c0 28.8-.1 57.6.1 86.5 0 4.6-1 6.3-5.9 6.3q-74-.2-147.9 0c-4.1 0-5.6-1.3-5.6-5.4q.1-86 .1-171.9M724.3 1201.8c-8.7-23-16.2-46.4-24.1-69.7-10.6-1.1-21.2-1.8-31.8-1.9l-16.5-.5c-14.7-.2-30.2-1.5-42.7 2.4-3.1 1-8.6 4.9-8.6 4.9s-5.3 4.1-6.8 5c-26.9 15.9-51.8 31.6-72.8 55-1 1.1-6.3 6.6-4.1 6.8l6 .6c10.7 1.1 21.5 1.8 32.2 3.3 19.9 2.8 40 2.8 60 3.5a286.1 286.1 0 0 0 30.4-.9c9-.7 18-.2 26.9-1.1 17.3-1.7 34.6-3.9 51.9-5.8a4.3 4.3 0 0 0 0-1.6z" transform="translate(-.4 -.4)"/><path class="cls-6" d="M514 1368.9q.2-77.5.2-154.9v-4.9c-17.3 23.4-29 50.7-30.8 78.4-.7 11.5-1.1 15.3.6 26.5s7.6 29.1 11.5 41.1a16.9 16.9 0 0 0 .4 2.2l-.4 4.3c5 4.5 11.1 8 16.1 12.4 4.3 0 2.4-3.3 2.4-5.1zM396.3 974.5s-38.6-12.6-65.9-43.8-34-55-28.8-71.9c6.7-21.5 10.4-32.4 52.8-71.2 21.2-19.4 102.8-60.4 182.4-92 55.3-22 175.8-80.9 220.4-109 59.3-37.3 100-61 149.3-130.5 8-11.3 11.5-22.1 16.5-26.8 2.3-2.1 4.3-3 4.2-1.9-.5 4.6.2 8-3.2 22.6-19.1 82.7-75.5 295-75.5 295l-56.2-55.3s-53.4 24.1-91.7 37.5-164.3 73-164.3 73L482.1 829l-67.9 43.8c-31.9 20.7-52.4 50.4-52.4 50.4s-10.4 16.3-.1 29.8c6.2 8.2 17.8 14.3 34.6 21.5zM706.4 932l-2.2-76.9s57.3-.6 74 3.4 46 8 50 11.3a13.8 13.8 0 0 1 5.3 10.7c0 3.3-1.3 10-6.7 12.6s-45.3 17.4-55.7 20.7-64.7 18.2-64.7 18.2z" transform="translate(-.4 -.4)"/></svg>