<svg version="1.1" id="Layer_1" xmlns="http://www.w3.org/2000/svg" x="0" y="0" viewBox="0 0 458.2 293.2" xml:space="preserve"><style type="text/css">.st0{fill:#fff}</style><path class="st0" d="M160.8 176.8h71.6c-12.6 35.5-46.6 61-86.4 60.7-48.3-.4-88.3-39-90.2-87.3-2-51.8 39.5-94.6 90.9-94.6 23.5 0 44.9 8.9 61.1 23.6 3.8 3.5 9.6 3.5 13.4 0l26.3-24.7a9.85 9.85 0 0 0 0-14.3C221.9 15.9 187.5.8 149.6.1 68.7-1.6.6 64.7 0 145.6-.6 227 65.3 293.2 146.6 293.2c78.2 0 142.1-61.2 146.4-138.4.1-1 .2-33.6.2-33.6H160.8c-5.4 0-9.8 4.4-9.8 9.8v36c0 5.5 4.4 9.8 9.8 9.8zM414.5 124.5V89.3c0-4.8-3.9-8.6-8.6-8.6h-29.6c-4.8 0-8.6 3.9-8.6 8.6v35.2h-35.2c-4.8 0-8.6 3.9-8.6 8.6v29.6c0 4.8 3.9 8.6 8.6 8.6h35.2v35.2c0 4.8 3.9 8.6 8.6 8.6h29.6c4.8 0 8.6-3.9 8.6-8.6v-35.2h35.2c4.8 0 8.6-3.9 8.6-8.6v-29.6c0-4.8-3.9-8.6-8.6-8.6h-35.2z"/></svg>