<svg id="Шар_1" data-name="Шар 1" xmlns="http://www.w3.org/2000/svg" viewBox="0 0 242.9 534.6"><defs><style>.cls-1{fill:#fff}.cls-2{fill:#40d96c}</style></defs><path class="cls-1" d="M76.6 208.1c0 54.7.3 105-.3 155.4-.1 10.8 2.4 14.5 14.4 13.9 21.7-1 43.4-.9 65.1 0 11.4.5 15.1-2.1 14.9-13.5-.8-45.7-.3-91.3-.3-137v-18.6c25.2 25.8 48 49.1 70.9 72.3 3.5 3.6 2.8 7.7 2.8 11.8 0 76.6-.2 153.3.3 229.9.1 9.8-2.8 12.6-13.1 12.1-16.6-.8-33.4-.7-50.1 0-9.2.4-11.2-2.8-11-10.8.4-24.7-.2-49.3.4-74 .2-7.9-1.7-11-10.9-10.8-23.9.6-47.9.7-71.8 0-10.1-.3-11.7 3.5-11.5 11.8.5 24.1-.3 48.3.4 72.4.2 9.1-2.8 11.7-12.2 11.4-17.2-.7-34.5-.6-51.7 0-8.4.3-10.2-2.6-10.2-9.9.2-77.7.1-155.4.1-233.1 0-4.2 0-8.2 3.4-11.7 22.6-22.8 45.1-45.8 70.4-71.6z" transform="translate(-1.5)"/><path class="cls-2" d="M244.2 209.6c-33.6-33.9-64.4-64.6-94.9-95.6-25.9-26.4-25.9-26.6-51.9-.6s-54.6 55.3-82 82.8c-3.6 3.6-6 8.8-13.9 10 0-27-.1-53.5.1-80 0-5.8 4.9-9.2 8.6-13 34.8-36 70-71.8 104.5-108.1 6.6-7 10.2-6.6 16.6 0q53 55.5 106.9 110.3c4.6 4.7 6.1 9.4 6 15.5-.2 24.8 0 49.4 0 78.7z" transform="translate(-1.5)"/></svg>