<svg version="1.1" id="Capa_1" xmlns="http://www.w3.org/2000/svg" x="0" y="0" viewBox="0 0 488.4 402" xml:space="preserve"><style type="text/css">.st0{fill:#fff}</style><path class="st0" d="M46.9 113.9c6.2 4.6 24.8 18.1 55.9 40.7 31.1 22.6 54.9 39.9 71.4 52.1 1.8 1.3 5.7 4.2 11.6 8.7 5.9 4.5 10.8 8.1 14.7 10.9 3.9 2.8 8.6 5.9 14.2 9.3 5.5 3.4 10.8 6 15.7 7.7 4.9 1.7 9.4 2.6 13.6 2.6h.6c4.2 0 8.7-.9 13.6-2.6 4.9-1.7 10.1-4.3 15.7-7.7 5.5-3.4 10.3-6.5 14.2-9.3 3.9-2.8 8.8-6.4 14.7-10.9 5.9-4.5 9.8-7.4 11.6-8.7 16.7-12.2 59.2-43.1 127.5-92.8 13.3-9.7 24.3-21.4 33.2-35.1 8.9-13.7 13.4-28.1 13.4-43.1 0-12.6-4.3-12.3-12.9-21.3-8.8-8.9-19-13.4-30.8-13.4H43.6c-14 0-24.8 4.9-32.3 14.8C3.8 25.7 0 27.1 0 42c0 12 5 25 15 39 10 13.9 20.6 24.9 31.9 32.9z"/><path class="st0" d="M461.1 164.5c-59.6 42.3-104.8 75.1-135.7 98.5-10.4 8-18.8 14.2-25.2 18.7-6.5 4.5-15 9-25.8 13.7-10.7 4.7-20.7 7-30 7h-.6c-9.3 0-19.3-2.3-30-7s-19.3-9.2-25.8-13.7c-6.4-4.5-14.9-10.7-25.2-18.7-24.5-18.8-69.7-51.7-135.4-98.5C17.2 157.2 8 148.9 0 139.6v216.7c0 12.6 4.3 23.3 12.8 32.3 8.5 8.9 18.8 13.4 30.8 13.4h401.2c12 0 22.3-4.5 30.8-13.4s12.8-19.7 12.8-32.3V139.6c-7.8 9.1-16.9 17.4-27.3 24.9z"/></svg>