<svg version="1.1" id="Шар_1" xmlns="http://www.w3.org/2000/svg" x="0" y="0" viewBox="0 0 72 24" xml:space="preserve"><style type="text/css">.st0{fill:none}.st1{fill:#fff}</style><path class="st0" d="M24 0h24v24H24V0z"/><path class="st1" d="M30.6 10.8c1.4 2.8 3.8 5.1 6.6 6.6l2.2-2.2c.3-.3.7-.4 1-.2 1.1.4 2.3.6 3.6.6.5 0 1 .4 1 1V20c0 .5-.5 1-1 1-9.4 0-17-7.6-17-17 0-.5.5-1 1-1h3.5c.5 0 1 .5 1 1 0 1.3.2 2.4.6 3.6.1.3 0 .7-.3 1l-2.2 2.2zM60 2c-3.9 0-7 3.1-7 7 0 5.3 7 13 7 13s7-7.8 7-13c0-3.9-3.1-7-7-7zm0 9.5c-1.4 0-2.5-1.1-2.5-2.5s1.1-2.5 2.5-2.5 2.5 1.1 2.5 2.5-1.1 2.5-2.5 2.5z"/><path class="st0" d="M48 0h24v24H48V0z"/><path class="st1" d="M20 4H4c-1.1 0-2 .9-2 2v12c0 1.1.9 2 2 2h16c1.1 0 2-.9 2-2V6c0-1.1-.9-2-2-2zm0 4l-8 5-8-5V6l8 5 8-5v2z"/><path class="st0" d="M0 0h24v24H0V0z"/></svg>