<svg version="1.1" id="Layer_1" xmlns="http://www.w3.org/2000/svg" x="0" y="0" viewBox="0 0 512 445.8" xml:space="preserve"><style type="text/css">.st0{fill:#fff}</style><g id="XMLID_496_"><path id="XMLID_497_" class="st0" d="M9 213.8l118 44 45.7 146.9c2.9 9.4 14.4 12.9 22.1 6.6l65.8-53.6c6.9-5.6 16.7-5.9 23.9-.7L403 443.1c8.2 5.9 19.7 1.5 21.8-8.4l86.9-417.9C513.9 6 503.3-3 493.1 1L8.9 187.7c-11.9 4.6-11.8 21.6.1 26.1zm165.3 13.5l221.6-135c4.1-2.5 8.4 3.1 4.8 6.4L225.5 258.6c-6.7 6.2-11 14.6-12.2 23.6l-8.5 55c-.9 6.4-13.9 10.1-15.6 3.8l-24.9-87.6c-3-9.9 1.2-20.6 10-26.1z"/></g></svg>