<svg id="Шар_1" data-name="Шар 1" xmlns="http://www.w3.org/2000/svg" viewBox="0 0 196.732 116.568"><defs><style>.cls-1{fill:#a82760;stroke:#8a0048;stroke-miterlimit:10;stroke-width:2px}.cls-2{fill:#8a0048}.cls-3{fill:#b54c7a}.cls-4{opacity:.3}</style></defs><title>bag</title><rect class="cls-1" x="1" y="12.606" width="194.731" height="102.957" rx="13.833" ry="13.833"/><path class="cls-2" d="M77.742 9.093c.212.284-.41.532-.057.504 3.201-.255 14.38-2.18 19.234-2.138 4.583.04 21.13 1.498 21.717 2.088.442.445.494-4.17.493-5.478a1.02 1.02 0 0 0-.672-.958c-2.53-.916-12.89-3.06-21.393-3.11-7.218-.043-18.521 2.648-19.507 3.681-.754.79-.496 4.5.185 5.411z"/><path class="cls-3" d="M71.505 11.6s.311-3.766.662-5.363a3.42 3.42 0 0 1 3.269-2.967c3.683.082 3.011-.471 3.036 1.255.024 1.772 0 7.075 0 7.075M125.236 11.6s-.313-3.766-.664-5.363a3.491 3.491 0 0 0-3.28-2.967c-3.254-.055-3.027-.08-3.045 1.255-.025 1.772 0 7.075 0 7.075M24 10.175h11.455v1.432H24zM161.276 10.175h11.455v1.432h-11.455z"/><path class="cls-2" d="M24 12.606h11.455v102.957H24zM161.276 12.606h11.455v102.957h-11.455z"/><path class="cls-4" d="M7.667 112.333c5 1.75 156.94-4.94 168.273-10.606 5.643-2.822 10.445-8.752 12.393-11.4 3.125-4.25 8.398-13.41 8.398-23.077v34.375s.175 5.875-3.551 9.809c-3.798 4.008-7.961 5.129-10.649 5.129H14.375s-5.24.333-10.25-4.594"/></svg>