<svg id="Шар_1" data-name="Шар 1" xmlns="http://www.w3.org/2000/svg" viewBox="0 0 323.981 366.593"><defs><style>.cls-1{fill:#fff5f5}.cls-2{fill:#ef3b8a}.cls-3{fill:#f5f5ff}.cls-4{fill:#3ebe85}.cls-5{fill:#008b8b}.cls-6,.cls-7,.cls-8{fill:none;stroke-miterlimit:10}.cls-6,.cls-7{stroke:#008b8b}.cls-6{stroke-width:2px}.cls-7,.cls-8{stroke-width:3px}.cls-8{stroke:#ed1e79}</style></defs><title>brains</title><path class="cls-1" d="M157.385 352.226c-3.915 5.279-21.533 11.613-33.278 11.613-25.447 0-28.712-12.51-37.192-15.836-10.767-4.222-30.342 0-39.15-13.723-5.137-8.003-7.83-16.891-16.64-28.503s-7.83-7.39-11.745-13.724-3.915-10.557-3.915-20.058-4.893-10.557-8.808-19.002-6.261-16.395-1.958-26.392c12.724-29.559 0-25.336 4.894-43.282 2.01-7.373 7.25-7.315 9.787-16.891 3.915-14.78-6.862-22.407 0-39.06 7.83-19.002 10.767-15.835 15.66-21.113 9.286-10.015-1.078-25.645 16.64-41.172C67.34 51.36 66.973 33.73 79.084 30.246c14.68-4.222 16.02-.881 31.32-12.668 13.702-10.557 1.957-3.167 13.702-10.557s24.47-3.167 27.405-1.055a15.468 15.468 0 0 1 5.873 9.5c.979 4.224 3.915 331.482 0 336.76z"/><path class="cls-2" d="M157.121 352.03c-1.609-1.193-.446-.33-.805-.596v.002l-.002.003-.001.005-.003.011-.005.022-.008.04a.427.427 0 0 0-.006.073.194.194 0 0 0 .028.106c.036.052.104.066.198.03a.533.533 0 0 0 .076-.035l.02-.012.01-.007.006-.003.002-.002.49.363-.002-.002-.004-.003-.007-.006a2.234 2.234 0 0 0-.244-.185l-.14-.085c-.052-.029-.111-.058-.09-.043l.008.02c.004.034.028-.032.041-.051a1.702 1.702 0 0 0 .156-.634l-.536-.947c-.008.32-.021.631-.041.928l-.037.403-.013.125s-.006.042.003.012c-.047-.04.174.034.262.07a2.194 2.194 0 0 1 .644.399zM158.17 343.592c-.247-1.534-.745-3.304-1.39-2.347.571 1.526.292 1.875.964 3.528.01 1.296-.345 2.235-.574 2.002.143.468-.285 1.974.058 2.693a11.745 11.745 0 0 0 .506-5.992c.168-.47.319.001.435.116zM160.26 217.177l-.076.815a5.437 5.437 0 0 0 .077-.815zM160.258 138.838c.02.596.087.845.147.874-.047-.553-.09-1.008-.147-.874zM160.89 125.457l-.039.789a1.99 1.99 0 0 0 .04-.789zM160.26 217.177l.204-2.093c-.216-.146-.158 1.073-.203 2.093zM157.102 326.137a6.991 6.991 0 0 0 .151 1.139l-.048-1.068a.498.498 0 0 1-.103-.07zM160.824 251.713v.636a3.446 3.446 0 0 0 .269.529zM160.86 278.22c.028-.6-.533-.81-.778-1.042a2.686 2.686 0 0 1 .38 1.31c.107.01.235-.068.399-.268zM159.488 320.243l.065.747-.065-.747zM160.944 232.742a.504.504 0 0 0 .2-.242c-.07 0-.137.095-.2.242zM129.003 360.858c-.015.042.016.064.014.099.139-.077.179-.122-.014-.1zM157.502 352.313l-.265.343a.837.837 0 0 0 .179.273zM161.408 100.972l-.01.11c.07.643.056.278.01-.11zM48.45 64.9c1.164-.72.443.107-.062.893-.523.775-.903 1.413.676.198-.465.083 2.058-3.107-.615-1.09zM157.19 325.453l.015-1.084a9.281 9.281 0 0 0-.015 1.084z"/><path class="cls-2" d="M49.064 65.991l.004.004.323-.251zM160.444 44.57a1.802 1.802 0 0 0-.238.578c.057-.02.126-.151.238-.579zM160.135 86.6l.065-1.041a9.994 9.994 0 0 0-.065 1.04zM159.272 22.754a6.2 6.2 0 0 0 .008-1.533 1.41 1.41 0 0 0-.063.237 3.116 3.116 0 0 1 .055 1.296zM148.455 2.785c.108.084.257.17.385.256.23.073.497.148.733.237-.37-.177-.744-.328-1.118-.493zM65.521 342.11a3.61 3.61 0 0 1 .908.673c-.263-.45 2.927-.057-.908-.673zM157.418 326.132a.97.97 0 0 1-.228-.679l.015.755c.082.068.161.084.213-.076zM154.816 21.939l-.018-3.583c-.02.997-.013 2.3.018 3.583zM12.8 206.13l.042.91a3.208 3.208 0 0 0-.042-.91zM151.886 10.162a4.332 4.332 0 0 0-.849-1.45 1.044 1.044 0 0 0-.352-.114 10.889 10.889 0 0 1 1.2 1.564zM66.435 342.79c-.007-.003-.006-.007-.006-.007s-.001.004.006.007z"/><path class="cls-2" d="M90.958 346.533a10.367 10.367 0 0 0-1.094-.631 6.217 6.217 0 0 0-.773-.276c-.395-.105-.566-.07-.649.022-.162.184.01.585-.458.601-1.091-.412-1.735-.593-2.132-.765-.394-.17-.53-.3-.574-.416-.09-.239.202-.457-.497-.83-2.788-.475-4.878-.031-6.805-.31-.13-.138-.5-.227-.042-.325-2.827.248-8.01-.774-11.134-.564a.981.981 0 0 1-.365-.249c.427.45.447.833.302 1.081-1.497-.236-2.872-.052-3.32-.659a2.409 2.409 0 0 0 1.471-.027q-.796-.043-1.587-.124c-1.226-.976 2.15.23 2.252-.3-3.028-.3-6.628-.785-8.634-2.001-.068-.406 1.155.111 2.121.421.977.299 1.634.48.306-.3a34.236 34.236 0 0 0 3.304 1.282c-2.346-1.719 2.052.607-.056-1.123-2.179-.68-3.344-1.064-4.513-1.474a12.397 12.397 0 0 1-3.986-2.241c-.989-.313-.08.65-1.093.321a8.038 8.038 0 0 1-2.528-2.477 5.478 5.478 0 0 1-.725-1.85 7.602 7.602 0 0 0-1.998-3.96c-1.016-.91-2.026-.95-3.269-4.391l1.245.753c-2.085-4.256-2.184-1.919-4.04-6.606.69.65 1.96 3.233 1.709 2.546-.957-3.173-1.434-1.853-2.625-4.06l.348-.785a102.075 102.075 0 0 0-9.707-13.43c.35.124 1.115.767.467-.414-1.167-1.369-2.361-2.799-3.634-4.245a51.338 51.338 0 0 0-1.998-2.17c-.693-.712-1.486-1.427-2.093-2.007a9.356 9.356 0 0 1-1.465-1.8 30.809 30.809 0 0 1-1.297-2.21 21.454 21.454 0 0 1-1.82-4.4 17.06 17.06 0 0 1-1.197-2.046c-.115-.538.07-1.047.284-.489-.182-2.392-.404-.048-.808-1.169-.23-1.396.135-1.892.39-1.019a51.207 51.207 0 0 1-.921-8.784 31.124 31.124 0 0 0-.534-5.314 24.405 24.405 0 0 0-1.464-4.607 10.624 10.624 0 0 1 .655.894 8.626 8.626 0 0 0-2.7-3.54 8.115 8.115 0 0 1-2.425-2.958l.468.481a37.696 37.696 0 0 1-3.024-5.239 60.806 60.806 0 0 1-2.373-5.697c-1.323-3.756-1.836-7.471-1.215-10.347-.44-.567-.162-2.48.296-4.249.439-1.78 1.115-3.415.66-3.87.538-.983.976-1.719 1.321-2.282l.91-1.473c.291-.483.6-1.027 1.02-1.838.41-.817.873-1.937 1.546-3.535a5.837 5.837 0 0 0 .38-2.36 11.733 11.733 0 0 1 .263-2.723l.612.098c.054-1.07.03-2.163.04-3.221a14.564 14.564 0 0 0 .993-1.564c.032-.754.095-1.495.093-2.25-.104.897-.49 1.853-.642 1.699.017-.432.052-.885.1-1.347.04-.465.036-.952.071-1.432l.103-1.432.022-1.365c.053-.876.015-1.63.035-2.189a2.084 2.084 0 0 1 .133-.947 74.158 74.158 0 0 1-2.027-7.2 9.117 9.117 0 0 1 .806 2.128c-.625-1.762-.463-1.958-.295-2.095.178-.15.291-.224-.028-1.852-.159.446-.357-.24-.479-.324.122-.422.17-.966.296-1.604.142-.64.274-1.365.39-2.129.391-1.532.684-3.303 1.111-4.484.07.21.127.405.211.611a13.004 13.004 0 0 1 1.703-3.064c.74-1.013 1.748-2.08 2.821-3.39a23.327 23.327 0 0 0 2.906-4.45 29.823 29.823 0 0 0 1.84-5.006c-.918 2.37-1.433 1.544-.942-.371l.8-.631c-.121-1.36-.675 1.99-.603-.714.302-1.227.564-1.62.742-1.52.207.106.29.71.243 1.467.06-.528.17-1.044.186-1.577l.058-1.59c.214-.17.238.582.463.808a4.811 4.811 0 0 1 .073-1.456c.083-.608.133-1.318.212-2.052a10.232 10.232 0 0 0 .02-2.164 4.253 4.253 0 0 0-.415-1.725l.166-.2a61.164 61.164 0 0 0-1.7-7.802 41.715 41.715 0 0 1-1.301-6.326c-.598-.041-.619-1.916-1.033-3.365a18.533 18.533 0 0 1 .4-2.714l.309-1.386c.108-.465.295-.923.437-1.392l.451-1.417.588-1.42.575-1.46.664-1.547c1-3.042-.079-1.052.204-2.496.282-.002.886-1.033 1.336-1.776.461-.735.783-1.168.425-.059 1.162-2.408 1.925-3.94 2.866-5.49.22-.407.479-.777.74-1.186.255-.421.551-.823.876-1.258a14.968 14.968 0 0 1 2.686-2.796c-.703.24-1.348.662-1.148.273.837-.792 2.384-1.433 2.367-1.136l-.245.231c.752-.635 1.654-1.301 2.51-2.089a23.885 23.885 0 0 0 2.48-2.552 20.048 20.048 0 0 0 3.505-6.433 32.943 32.943 0 0 0 1.413-6.492 29.844 29.844 0 0 0 .22-5.32l.017.346a45.63 45.63 0 0 1 .465-6.213c.78-2.702-.041 1.72.775-.21a17.357 17.357 0 0 1 2.853-7.632c1.328-2.026 2.817-3.74 4.535-5.871a17.661 17.661 0 0 0 3.65-2.527 35.801 35.801 0 0 0 4.263-4.54c2.762-3.428 4.983-7.38 6.91-9.853l-.485.138c.472-1.565 1.11-1.593 1.735-2.59-.323.018-1.095 1.369-.8.408 1.496-3.006 2.924-6.051 4.571-8.85 1.637-2.792 3.563-5.319 5.968-6.696a10.635 10.635 0 0 1 1.869-.86l1.004-.29 1.219-.281a78.652 78.652 0 0 1 4.89-.99c1.64-.292 3.293-.526 5.016-.805a39.99 39.99 0 0 0 5.339-1.154 6.934 6.934 0 0 0 3.831-2.365c.666-.754 1.52-1.428 4.491-2.785-.382.53-.822 1.016-1.241 1.532 4.35-3.041 8.355-6.233 12.412-9.411 1.017-.825 2.006-1.611 3.06-2.604a7.1 7.1 0 0 0 .416-.414 6.1 6.1 0 0 0 .47-.53 3.951 3.951 0 0 0 .251-.34l.12-.182a.231.231 0 0 1-.03.043l-.012.014-.006.007-.003.003c1.15.892-1.573-1.214-1.28-.989a2.4 2.4 0 0 1 .193.154 2.333 2.333 0 0 1 .33.357.84.84 0 0 0 .112.138l.3.321.148.163c.069.077.02.02.037.037l.006-.004.022-.016.02-.019.076-.053.156-.11.346-.235.756-.5 6.006-3.985c-.395.4-.312.582-1.064 1.006.917-.285 2.435-1.039 3.794-1.647 1.35-.627 2.542-1.11 2.513-1.306 1.364-.29.388.237 1.261.277a6.95 6.95 0 0 0 1.514-.227c.532-.1 1.083-.21 1.61-.328a4.766 4.766 0 0 1 2.53-.05c.166.08-.532.127-.873.188A5.643 5.643 0 0 1 140 5.635l.892.025.881.083c1.127.07 1.95.215 1.416-.18 1.643.39 3.214.742 4.62 1.213a12.126 12.126 0 0 1 1.899.796 5.596 5.596 0 0 1 1.33 1.14 5.343 5.343 0 0 1 2.229 2.383c.593 1.042.98 2.048 1.491 2.142-.436.036-.127 1.272.158 2.675l.074 1.16.123 1.567a25.145 25.145 0 0 0 .347 2.58c-.292-.766-.233 2.017-.634 1.12.075 2.637.288 5.057.744 4.587-.986 4.888 1.044 9.779-.3 12.545a629.934 629.934 0 0 1 1.323 22.193c-.905-.244-.186-7.816-1.13-7.5.456 6.703 1.276 10.565 1.132 17.22-.104 1.725-.402-.973-.562-1.553.446 6.699.057 12.962.606 18.921a3.92 3.92 0 0 1-.257-1.265c.041 1.175-.105 2.735.303 2.598l-.123-1.145c.578-1.883 1.289 4.657 1.605 4.864-1.194-1.984-.24 5.895-1.755 2.74.084.772.287 1.741.56 1.561-.07 1.149-.226 1.515-.549.353.261 4.209.684 2.71.708 6.524-.198-.011-.282-.78-.519-1.173a25.153 25.153 0 0 1 .668 7.091c-.122-.193-.274.183-.28-.78.107 5.537 1.11 9.43.782 15.508-.876-1.785-.268 2.069-1.013 2.396l.247 3.265.353-1.314c.008 2.862.57 5.387.342 7.848l-.322-2.124.179 5.361.262-3.037c.405 2.893.943-.316.76 3.494-.08-.774.011 2.862-.42 4.356l-.002-.01a17.786 17.786 0 0 1 .335 4.987c-.235.551-.829-.437-.985-.078.633 1.392.214 6.7.889 8.464-.16-.588-.552-.617-.63-.423l.513 1.17c-.154 1.326-.232 1.52-.546 1.307-.07 3.988.94-1.272.559 3.462a6.786 6.786 0 0 1-.2-.966c-.186 4.754.371 9.18.143 13.55-.745 1.291-.203-3.815-.83-2.337.168 6.295.962 13.034.807 19.128l.08-1.136c1.063.84-.507 4.54.003 7.62-.082-.754-.593-.987-.474-.784-.156 4.174.289 8.53.638 14.853l-.275-.783c-.237 2.46-.125 6.476-.245 9.133.274.788.232 2.308.627 1.384-1.538 8.192.85 15.623-.445 22.891-.003-.869-.238-2.071-.239-1.38l.247 6.19c.463-.489.28-.811.641-2.111a15.238 15.238 0 0 1 .483 4.065c-.303-2.784-.742.024-1.001 1.226.142-.202.297.21.442.109-.828 3.232.93.543.368 4.957l-.242-.234a40.443 40.443 0 0 1 .365 4.958c-.537.737-.246-1.76-.685-1.874.025 2.502 1 4.94.46 7.204-.145-1.063-.143-2.592-.288-3.655a15.885 15.885 0 0 0-.582 4.583l.015-.18-.299 4.236.174-1.078c1.383 3.137.23 6.377 1.12 10.6-.843-4.105-.497-.68-1.1-.997-.174 1.076-.372 2.712-.54 2.245.477 1.996-.404 3.325.291 6.143-.195.125-.034 2.132-.52 1.679.134 2.593.343-.61.586-.39.638 4-.881 9.382-.032 15.137.317 4.959.962 5.883 1.22 10.488-.337 1.548-.691-1.282-.691-1.282a30.332 30.332 0 0 0-.126 6.746c-.16-.481-.314.009-.547.723.013 1.893.685 1.28.343 3.77a7.449 7.449 0 0 1-.742-1.907c.133 2.233.445 4.442.557 6.755-.357.602-.476-1.406-.679-2.225.092 2.596.116 6.721.62 7.541l.249-1.656c-.004.946-.477.47-.553-.23-.35-2.233.283-3.197.483-3.318l.077 1.647c1.198-1.656-.003-6.61.125-9.916l.803 1.398-.623-3.41c.23-.719.703-1.205.798.433.454-2.368-.257-2.107.235-4.14.075-.224.113-.121.143.088l-.211-2.325c.167.458.593-.377.45 1.047.545-4.16-.528-6.726.122-8.286l.047.349c-.214-5.783-.604-.567-1.272-4.909l1.536-2.901-.605-.575c.027-.596.084-1.775.326-1.554-.398-2.223-.268.375-.652-.916.583-2.865-.198-7.914.78-8.554-.458-1.033-.378 2.742-.68-.323 1.053-.867-.155-3.543.339-6.161.536.808.235 3.29.733.67-.905-1.587.226-5.105.06-7.317-.725-.107-.281-4.81-.513-8.521.244.235.42-6.982.687-10.433l.121.102c-.733-.67-.589-4.23-.738-6.823.44.102.612.569.807 1.974v-2.438a9.128 9.128 0 0 1-.442-2.916l.549.613c-.028-3.244-.644-6.533-.279-10.707-.512-.235-1.424 3.32-1.768-1.093.277-.164.75-.327.864.827a8.453 8.453 0 0 1-.113-2.11l.467 1.762c.204-1.9-.39-.994-.347-2.513.395.03.28-1.125.594-.907a10.295 10.295 0 0 0-.007 1.907 18.231 18.231 0 0 1 .6-4.47c-.224.15-.53 0-.583-1.255-.033-3.243.473-1.11.674-3.003-.275-.785.006-2.855-.585-2.909a2.465 2.465 0 0 1 .436-1.492c-.263-1.678-.09-7.841-.714-5.948l-.04.43-.026-.274v.014-.014c-.6-5.5.306-11.431.035-16.89l.198.008c-.236-3.259-.16-7.254-.593-9.58-.003-.963.352-2.276.588-1.865a27.727 27.727 0 0 1-.071-6.369c.355 2.504.301-.865.263 2.566.157-3.238.47-3.972-.086-7.446.512 1.181.626-2.44.467-3.978l-.351 2.27c-.082-1.73-.045-3.243-.01-4.78l.67.828c.776-6.63-1.44-11.94-.116-16.99-.475-1.75-.306 3.6-.86 2.036.072-3.048 1.008-6.229 1.004-7.183.342-4.176-.997-3.888-.774-8.258-.233.56-.863 1.092-1.109-2.17.067-3.05.97-3.755 1.174-1.832.025.731-.048 1.085-.129 1.054.094.985.204 2.277.453 1.068l-.24-.394c.232-1.515.177-5.71.574-4.727-.243-2.303-.397-.983-.508.725.316-3.914-.033-6.11.167-10.138-.126.641-.4 1.233-.402.596.249-5.907-.47-2.597-.605-6.597.343-2.276.87.808.535-3.217.225-2.462.625-.526.827.45-.487-3.666.244-6.86.31-8.956l.208 1.932a28.986 28.986 0 0 1-.135-3.066l-.466 1.108c.074-1.136.067-2.097.265-2.077-.321-1.167-.782.902-1.227-1.415.228-1.515-.3-4.605.325-5.134-.171 4.76.628-.531.766 3.496a17.276 17.276 0 0 1-.015-2.863c.07-.172.132.16.171.47.522-4.559-.73-2.087-.76-6.806.36.596.663-1.1.58-1.87.01 1.902-.584.916-.872-.826.247-3.029-.237-3.287-.221-4.872l-.112 1.81c-.36-.61-.33-2.123-.462-4.23.274-.184.21 1.913.323 1.159-.647-2.336.593-5.299.138-8.56.225-1.515.665-.153.814-1.483-.5-3.656.444-3.97.02-7.813-.464 1.114-.346 1.307-.841-1.397l.406 6.32-.739-4.05c.015 1.908.345 4.024.276 5.168-.41-1.93-.29-1.732-.675-.814.687-2.62-.474-5.173-.026-8.197l1.183.079c.473-4.546-.702-8.057-.482-13.955l-.181 1.897c-.48-.784-.113-3.638-.33-5.544.397.172.525-1.023.759-1.841-.291.103-.035-4.315-.832-4.839l.48-2.64c.136-4.763-1.212-5.413-1.163-9.99.454 1.37.696-.715 1.06 2.345-.024-1.528.021-2.904-.253-2.923.231-.898-.619-4.227-.281-5.643a5.12 5.12 0 0 1-.625-2.56c.074-.19.195 0 .195 0-.192 0-.361-2.688-.742-1.166a11.082 11.082 0 0 0 .189-1.137 6.031 6.031 0 0 0 .038-1.385 15.028 15.028 0 0 0-3.451-7.59 16.664 16.664 0 0 0-3.068-2.795c-1.124-.742-2.11-1.267-2.913-1.784a32.668 32.668 0 0 0-10.724-1.382c.2-.122.006-.197.606-.168a5.572 5.572 0 0 0-3.55.59 7.4 7.4 0 0 1-1.284.56 8.559 8.559 0 0 1-1.049.244c-.415.102-.907.209-1.51.309-2.603.006 2.447-.98.87-.827-.471-.54-1.982-.18-3.685.591-.871.332-1.735.886-2.64 1.283a15.883 15.883 0 0 1-2.572 1.164l.679-.474a8.23 8.23 0 0 0-.951.421c-.295.166-.594.354-.9.56a35.81 35.81 0 0 0-1.913 1.419l-2.142 1.665c-.219.178-.378.286-.654.523l-.195.17c-.085.081-.19.196-.276.298a2.474 2.474 0 0 0-.208.3l-.064.108c-.03.054-.079.106-.116.162l-.197.214c-.121.14-.317.304-.48.454 0 0 .05-.205-.118-.159-1.454 2.227-5.465 5.634-8.405 8.034.649-1.124 1.224-1.257.339-1.238-1.33 1.071.92.397-1.784 2.493-1.055.441-3.255 1.552-3.81 1.253a91.596 91.596 0 0 0 2.629-1.767 6.45 6.45 0 0 0-2.535 1.356 15.002 15.002 0 0 1-2.381 1.588l.034-.37-4.143 2.412a15.045 15.045 0 0 1-4.876 1.648l.582.123c-2.69 1.335-2.47.02-5.225 1.162l-1.031-.589c-.936.293-2.566.854-4.353 1.52-.899.355-1.81.647-2.772 1.077-.477.185-.914.457-1.355.668-.416.262-.834.49-1.202.753a10.233 10.233 0 0 1 3.67-2.321c1.476-.617 3.05-1.182 4.253-1.64-.948.223-2.554.625-4.013 1.107a15.387 15.387 0 0 0-2.102.808 4.885 4.885 0 0 0-1.242.826 7.125 7.125 0 0 1 2.515-1.17 23.725 23.725 0 0 0-7.42 6.38c-.375-.767-2.123 1.254-3.606 3.844-1.519 2.571-3 5.557-4.169 6.488-2.567 6.174-6.53 11.332-11.835 16.52 1.357-.504.98-.12.397.474-.601.568-1.408 1.324-.832 1.627a14.74 14.74 0 0 1-2.022 1.857 38.533 38.533 0 0 0-4.336 3.862c-.536.47-.347.039-.013-.48.333-.518.772-1.152.61-1.169-1.376 1.641-1.69 1.985-1.989 2.108-.282.14-.513.082-1.411 1.25.691-.27-.32 1.58-1.476 3.791a33.71 33.71 0 0 1 2.092-2.839 32.252 32.252 0 0 1-2.561 5 11.113 11.113 0 0 0-1.685 5.375c.003-.646 0-1.296.042-1.952a60.295 60.295 0 0 0-.968 7.098 28.783 28.783 0 0 0 .123 6.736c-.197.476-.615 1.06-.55-.15a45.3 45.3 0 0 1-.86 4.86 14.351 14.351 0 0 1-1.853 4.342c-.208.33-.461.626-.687.941-.25.3-.52.586-.776.877a14.37 14.37 0 0 1-1.746 1.495c-1.252.9-2.728 1.815-3.93 2.76l.247-.622c-1.08 1.049-1.427 2.17-2.741 3.366-.047-.147.092-.64-.302-.121-.403.669-1.647 3.334-2.6 4.81l.451-1.497a30.11 30.11 0 0 0-3.587 7.89c-.35 1.216-.713 2.336-1.028 3.611-.3 1.278-.717 2.546-.98 4.013-.393-.113-1.14 1.145-1.547 2.914l-.338 1.37-.183 1.435-.146 1.377-.017 1.205-.128-.097a37.348 37.348 0 0 0 2.151 10.832 36.253 36.253 0 0 1 2.083 9.36l-.808 3.991c-.23.774-.387 1.618-.658 2.466-.144.42-.269.86-.427 1.287l-.51 1.273a17.161 17.161 0 0 1-3.056 4.648l-2.11 2.267a24.74 24.74 0 0 0-2.064 2.566c.85-1.015.41.522-.128 1.88a10.106 10.106 0 0 0-.944 3.154c-.148.965-.312 1.657-.675 1.434l.16-.62c-1.127 1.096-1.658 4.94-1.507 8.043l1.087.439a13.043 13.043 0 0 0-.024 3.13 30.596 30.596 0 0 0 .58 3.184 37.963 37.963 0 0 1 1.038 5.928 22.906 22.906 0 0 1-.38 5.462c-.181.81-.373 1.548-.584 2.183a6.645 6.645 0 0 1-.817 1.568 21.783 21.783 0 0 1-.507 2.647c-.25.904-.499 1.808-.651 2.64l-.503-.276-.593 1.529-.606 1.376-1.11 2.593c-.351.829-.762 1.863-1.198 3.006l-.58 1.877a49.56 49.56 0 0 0-.506 2.204c-.044-.46-.057-.917-.083-1.385a6.826 6.826 0 0 0-.255 2.34 7.905 7.905 0 0 0 .316 1.846l.455 1.735a8.556 8.556 0 0 1 .162.967 8.703 8.703 0 0 1 .115 1.114c-.272.335-.548.682-.79 1.035a38.808 38.808 0 0 0 1.807 9.155 28.927 28.927 0 0 0 4.002 8.156c-.155-.026-.461-.062-.983-.937a38.8 38.8 0 0 0 3.444 5.605c1.345 1.765 2.271 2.905 2.514 2.228-.308.25.486 1.346 1.168 2.749a16.665 16.665 0 0 1 1.48 4.796l-.57-.418.491 1.457c.122.438.22.812.3 1.22a28.31 28.31 0 0 1 .386 3.624c-.048.89-.43.787-.309-.394a6.914 6.914 0 0 0 .198 2.714 13.515 13.515 0 0 1 .382 3.218c-.182-.44-.333-.881-.501-1.329a10.459 10.459 0 0 0 .481 2.816 13.847 13.847 0 0 0 .822 1.658c.357.93.789 2.347 1.211 3.587a7.954 7.954 0 0 1 .678 2.636 9.737 9.737 0 0 1 2.625 3.039c-.003.318-.511-.167-.741-.418a10.853 10.853 0 0 0 2.315 2.851c.818.688 1.476 1.148 2.1 1.66a12.873 12.873 0 0 1 3.16 3.508c-.097.172-.027.4.11.65-1.234-1.519-2.389-2.818-3.224-3.669-.833-.848-1.358-1.308-1.234-1.232-.297.389 1.75 2.48-.422 1.387a26.168 26.168 0 0 1 7.073 6.684 1.583 1.583 0 0 1 .109.433l-.242-.219a10.348 10.348 0 0 0 1.235 1.507c.516.837.834 1.373 1.358 2.153-.133.535 1.85 3.089 2.63 4.451.408-.409 1.423 1.392.796-.492.099.234-.215-.219-.79-1.097a5.637 5.637 0 0 0-.416-.531l.1.063c-.575-.86-1.334-1.978-2.228-3.224a9.087 9.087 0 0 1 2.581 3.44c.737.49 1.526 1.06 1.944 1.4.488 2.263 2.11 6.124 1.943 6.871 1.272 2.059 2.594 4.61 3.946 6.934a22.474 22.474 0 0 0 4.03 5.462 3.72 3.72 0 0 1 .78 2.099c-.592-.654-1.047-1.491-1.429-1.796a33.657 33.657 0 0 0 3.47 4.366c1.369 1.38 2.791 2.24 3.277 2.157 1.405 1.186.9 1.039.546.93-.176-.053-.309-.094-.128.057a12.092 12.092 0 0 0 1.807 1.106c-.243-.037-.475-.1-.714-.155a17.222 17.222 0 0 0 6.337 2.973 32.819 32.819 0 0 0 6.188.852c4.069.259 8.252.122 13.308 1.568a3.372 3.372 0 0 1-1.18-.42 42.465 42.465 0 0 1 8.491 2.158c2.542 1.086 4.805 3.127 7.179 5.125a50.212 50.212 0 0 0 7.644 5.486 47.002 47.002 0 0 0 8.522 3.786 9.863 9.863 0 0 0 3.437.635 35.351 35.351 0 0 0 2.503-.14l.668.674c1.223-.136 2.427-.17 3.623-.395a18.943 18.943 0 0 1 3.586.113c1.157.069 2.322.243 3.517.269a18.592 18.592 0 0 0 8.04-1.185l-.893-.22a34.297 34.297 0 0 0 2.046-.456l2.262-.62c1.417-.426 2.526-.718 2.412-.44a2.505 2.505 0 0 1 1.504-.713l.167.278a66.855 66.855 0 0 0 5.08-2.508c2.039-.781 2.014-.454 2.215-.215.195.212.64.41 3.551-1.208a12.707 12.707 0 0 0 1.71-1.331c.29-.27.584-.521.852-.809l.738-.864a4.474 4.474 0 0 0 .564-.808c.15-.257.267-.476.345-.645.157-.338.147-.472-.046-.324a6.433 6.433 0 0 1-1.271 1.148c-.453.276-.836.439-.962.339l.775-.774c.253-.262.458-.578.684-.86-.218-.44-.297-1.092-.766-1.207-.535-.11-1.083.2-3.146 1.305a13.412 13.412 0 0 1-1.235 1.15c-.438.373-.873.76-1.356 1.103l-1.2.121c.857-.458 1.719-.91 2.511-1.424a5.606 5.606 0 0 0-1.044.414 5.526 5.526 0 0 0-.847.48c-.506.351-.923.754-1.415 1.112a2.883 2.883 0 0 0-1.536.167c-.942.707-1.888 1.45-2.888 2.118-.52-.196 1.202-1.22-1.046-.597-1.394.95 1.76.24-.713 1.403-1.766.132-1.375-.323-3.193.585-.337-.15.027-.418.752-.742-1.613.799-4.48 1.39-5.274 2.037a21.886 21.886 0 0 0-3.618.47c-1.236.188-2.239.248-2.206-.194a14.651 14.651 0 0 1-4.59 1.06c1.431-.596-.016-.481-1.822-.605-.895-.04-1.858-.085-2.543-.188-.684-.108-1.076-.33-.864-.583a12.47 12.47 0 0 1-5.216-.03c-.532-.083-1.082-.158-1.627-.257l-1.606-.373c-.53-.126-1.07-.207-1.572-.34a22.32 22.32 0 0 0-1.457-.35 2.223 2.223 0 0 1 .965.149 11.696 11.696 0 0 1-2.106-1.011c-.492-.336-.889-.642-1.46-.994-.601.664-3.583-.79-5.356-1.47-.854-1.109-.38-1.043.25-.855.625.21 1.462.434 1.321-.074-.06.148-.348.11-.736-.034-.379-.161-.858-.424-1.32-.677-.926-.498-1.745-1.054-1.565-.547-1.286-1.656-1.217-1.335-1.602-2.512-.93.5-1.579-1.19-3.398-1.907a5.203 5.203 0 0 1-1.333-1.772 1.253 1.253 0 0 0-.473-.437 9.46 9.46 0 0 0-1.704-.879c-.802-.547-.366-.52.305-.337a5.117 5.117 0 0 1 .972.37zm-59.7-43.04l.008-.006 1.048 1.306-1.056-1.3zm-4.409-5.277c.565.638 1.256 1.429 1.96 2.275.006.31-.314.237-.748-.297.342.201-.616-1.104-1.212-1.978zm5.636 13.625c-.635-.827-.762-1.162-.743-1.35l1.079 1.473c.034.013.088.052.125.065a1 1 0 0 1-.461-.188z"/><path class="cls-2" d="M34.133 313.008c.09.122.155.18.263.346-.073-.208-.141-.406-.227-.599l-.352-.215zM160.171 218.135l.013-.143a1.256 1.256 0 0 1-.08.3 1.054 1.054 0 0 1 .067-.157zM11.857 214.099l-.141-.025-.047.622.188-.597zM158.263 255.294a1.239 1.239 0 0 0-.144.488 1.597 1.597 0 0 0 .144-.488zM158.102 271.343l-.208 2.27c.117-.982.173-1.698.208-2.27zM157.77 283.68a.625.625 0 0 0 .24.244l.005-.025zM156.382 87.487a5.725 5.725 0 0 0-.03-.476c-.12-1.116-.07-.357.03.476zM158.168 145.864c-.106-.62-.21-1.23-.277-1.876-.036 1.04-.043 1.848.277 1.876zM154.816 22.333c.003.006.005 0 .01.006l-.01-.4zM157.882 141.273a12.974 12.974 0 0 0 .009 2.715 19.997 19.997 0 0 0-.009-2.715zM156.772 337.116l-.042.591c.037-.008.066.028.088.074zM156.818 337.781l.044.66a1.672 1.672 0 0 0-.044-.66zM156.954 339.83l-.092-1.389a3.654 3.654 0 0 0 .092 1.39zM157.408 320.814l-.201-.19a.282.282 0 0 0 .2.19zM157.425 315.853a35.4 35.4 0 0 0-.378 4.614l.16.157c-.29-.78.547-3.642.218-4.771zM160.164 295.16l-.197 4.16c.224-.725.524-1.68.56.214.691-5.24-.494 1.078-.363-4.373zM160.56 282.26c.088 2.236.315-.025.437.094-.191-1.419-.24-1.762-.438-.094zM160.528 189.026l.513.223c-.08-1.723-.199-.016-.513-.223zM157.802 171.218l-.309 1.678.472.795-.163-2.473zM161.389 160.671l.077.752-.202-2.874.125 2.122zM152.822 4.32l.089.858c.536.359.966.474 1.049.327.082-.143-.183-.597-1.138-1.185zM91.348 26.009a7.663 7.663 0 0 0-3.755.517c1.511-.243 3.032-.281 3.755-.517zM6.521 196.323c-.185-.443-.324-.938-.475-1.424.189.952.468 1.803.723 2.677z"/><path class="cls-3" d="M167.172 352.226c3.915 5.279 21.12 11.613 32.865 11.613 25.448 0 28.712-12.51 37.193-15.836 10.766-4.222 30.341 0 39.15-13.723 5.136-8.003 7.83-16.891 16.639-28.503s7.83-7.39 11.745-13.724 3.915-10.557 3.915-20.058 4.894-10.557 8.809-19.002 6.26-16.395 1.957-26.392c-12.724-29.559 0-25.336-4.894-43.282-2.01-7.373-7.25-7.315-9.787-16.891-3.915-14.78 6.862-22.407 0-39.06-7.83-19.002-10.767-15.835-15.66-21.113-9.286-10.015 1.078-25.645-16.64-41.172-15.66-13.723-15.293-31.353-27.404-34.837-14.682-4.222-16.021-.881-31.32-12.668-13.703-10.557-1.958-3.167-13.703-10.557s-24.469-3.167-27.405-1.055a15.468 15.468 0 0 0-5.873 9.5c-.979 4.224-3.502 331.482.413 336.76z"/><path class="cls-4" d="M166.104 353.019c.208.137.351.094.339-.107a.563.563 0 0 0-.07-.24 1.922 1.922 0 0 1-.142-.458l-.18-.89a30.856 30.856 0 0 1-.792-.87c.071.344.149.695.24 1.058l.164.58.13.355a2.062 2.062 0 0 0 .124.267 3.159 3.159 0 0 0 .187.305zM166.17 343.607c-.397-1.502-1.028-3.236-1.596-2.224.702 1.482.45 1.861 1.294 3.445.146 1.29-.075 2.273-.333 2.072.196.445 0 2.035.488 2.7a14.577 14.577 0 0 0-.298-6.066c.122-.485.317-.03.445.073zM165.987 217.24l-.08.815a5.431 5.431 0 0 0 .08-.814zM166.618 138.947c.013.596.077.846.137.876-.04-.554-.078-1.008-.137-.876zM167.428 125.584l-.05.788a1.99 1.99 0 0 0 .05-.788zM165.987 217.24l.21-2.09c-.215-.147-.161 1.071-.21 2.09zM164.023 326.22a6.854 6.854 0 0 0 .2 1.134l-.095-1.067a.496.496 0 0 1-.105-.066zM166.54 251.754l.002.636a3.437 3.437 0 0 0 .27.527zM166.74 278.238c.02-.599-.543-.804-.79-1.033a2.682 2.682 0 0 1 .393 1.305c.107.009.234-.07.396-.272zM166.186 320.238l.09.744zM166.64 232.796a.504.504 0 0 0 .2-.241c-.07 0-.137.095-.2.241zM194.87 366.144c.026-.036-.002-.066.01-.1-.167.035-.222.068-.01.1zM167.29 352.14l.3.293a.844.844 0 0 0 .3-.135zM168.32 101.127l-.012.109c.06.644.051.28.012-.109zM272.312 68.104c-.722-.99.133-.47.834.012.7.475 1.319.856.217-.669.094.365-3.05-1.622-1.051.657zM164.083 325.532l-.028-1.086a9.3 9.3 0 0 0 .028 1.086zM273.363 67.447l.003-.003c-.075-.106-.159-.205-.24-.304.1.124.158.195.237.307zM168.538 44.767a1.8 1.8 0 0 0-.254.571c.058-.018.13-.147.254-.571zM167.3 86.744l.084-1.038a9.972 9.972 0 0 0-.084 1.038zM168.095 22.97a6.27 6.27 0 0 0 .08-1.525 1.4 1.4 0 0 0-.074.233 3.122 3.122 0 0 1-.006 1.291zM176.585 5.875c-.12-.004-.27.015-.406.023-.194.08-.425.167-.612.265.324-.119.681-.19 1.018-.288zM259.845 346.697a3.36 3.36 0 0 1-1.16-.3c.43.325-2.96 1.074 1.16.3zM164.339 326.202a.972.972 0 0 1-.256-.67l.045.755c.085.065.165.077.21-.085zM163.681 21.946l.18-3.628a61.954 61.954 0 0 0-.18 3.628zM315.912 205.74l.086.746a2.198 2.198 0 0 0-.086-.747zM167.779 6.715l1.936-1.505a3.325 3.325 0 0 0 .273-.44 16.342 16.342 0 0 0-2.209 1.945zM258.676 346.392c.009.002.01.005.01.005s-.001-.003-.01-.005z"/><path class="cls-5" d="M236.828 351.785c2.354-1.216.813-1.228 1.184-1.89 1.692-.73 2.207-.656 2.368-.495.172.172.07.49.721.518 2.224-.704 4.043-1.621 5.911-1.816.155.105.523.108.114.308 2.553-.895 8.006-.825 11.102-2.126a1.067 1.067 0 0 1 .448.108c-.582-.274-.719-.632-.659-.914 1.544-.262 2.747-1.004 3.429-.666a3.012 3.012 0 0 0-1.39.643c.525-.168 1.047-.372 1.566-.559 1.619.348-2.15.736-2.056 1.21a36.938 36.938 0 0 0 4.8-1.66c1.554-.642 2.97-1.33 4.148-1.79.389.178-.925.905-1.968 1.342-1.032.448-1.763.73-.05.438a34.699 34.699 0 0 1-3.827.941c3.182.26-2.338.544.636.942a19.817 19.817 0 0 0 5.299-1.975 42.535 42.535 0 0 0 4.917-3.069c.725-1.067-.656-.188.046-1.238l2.89-3.04a19.834 19.834 0 0 1 1.775-1.572 7.11 7.11 0 0 0 2.69-3.947c.255-1.412-.254-2.268 1.809-5.321l.12 1.46c2.228-4.211.227-2.944 2.97-7.086-.145.91-1.48 3.4-1.071 2.81 2.005-2.556.645-2.209 1.81-4.366l.838-.116a96.846 96.846 0 0 1 8.189-13.652c-.029.368-.437 1.247.516.352a47.472 47.472 0 0 1 3.275-4.17q.881-1.001 1.827-1.892c.63-.603 1.277-1.093 2.102-1.82a17.031 17.031 0 0 0 2.19-2.412 45.631 45.631 0 0 0 1.7-2.41 28.463 28.463 0 0 0 2.76-5.174 23.882 23.882 0 0 0 .199-2.96c.127-.644.485-1.165.466-.432.682-2.846-.33-.212-.354-1.613.15-1.596.556-2.082.636-1.045.02-2.539-.245-5.924-.371-9.296a16.313 16.313 0 0 1 .371-4.51 8.982 8.982 0 0 1 1.642-3.345 8.15 8.15 0 0 0-.247.82 18.775 18.775 0 0 0 1.627-3.365 9.396 9.396 0 0 1 2.121-3.283l-.318.644a30.57 30.57 0 0 0 3.425-5.73 64.314 64.314 0 0 0 2.457-6.044 44.498 44.498 0 0 0 2.37-11.71c-.428-.639-.541-2.86-1.007-4.947-.427-2.096-1.195-3.989-1.845-4.023-.64-2.397-.756-3.176-1.004-4.26-.121-.53-.27-1.114-.521-1.953a109.28 109.28 0 0 0-.955-3.521 8.695 8.695 0 0 0-1.008-1.994 10.148 10.148 0 0 1-1.173-2.288l.584-.2-1.223-2.666a15.791 15.791 0 0 1 .518-1.592 19.115 19.115 0 0 1-.35-1.882c-.029.747-.098 1.641-.308 1.544a11.01 11.01 0 0 1-.198-1.181c-.016-.405-.02-.822-.015-1.236a10.403 10.403 0 0 1 .277-2.35 5.279 5.279 0 0 1 .971-2.434 61.406 61.406 0 0 0 1.035-7.893 1.924 1.924 0 0 1 .188 1.043l-.064 1.733c.079-2.29.186-2.477.375-2.629a.57.57 0 0 0 .23-.449 5.724 5.724 0 0 0-.095-1.937c-.121.563-.378-.3-.506-.386a15.535 15.535 0 0 0-.198-4.539 76.532 76.532 0 0 0-.63-2.704 15.113 15.113 0 0 0-.996-2.71l.67.505a15.733 15.733 0 0 0-2.571-4.543c-1.076-1.344-2.185-2.417-3.094-3.472a16.834 16.834 0 0 1-2.312-3.322 18.798 18.798 0 0 1-1.47-3.946c.383 2.03-.455 1.845-.995.15l.49-.831c-.625-1.016.138 1.843-.823-.325-.22-1.108-.056-1.508.155-1.474.192.038.486.49.734 1.076a19.433 19.433 0 0 1-.59-2.578c.177-.169.346.436.609.565a3.049 3.049 0 0 1-.205-1.157c.03-.498.098-1.075.153-1.66.028-.583.184-1.19.205-1.744a5.474 5.474 0 0 0-.09-1.485l.214-.123c.426-2.914.967-5.123 1.404-7.297a63.363 63.363 0 0 0 1.114-7.086c-.272-.082-.305-.659-.387-1.44a10.307 10.307 0 0 0-.38-2.565 25.677 25.677 0 0 0-.115-3.158l-.15-1.646-.316-1.654c-.12-.555-.202-1.136-.368-1.689l-.527-1.672a28.434 28.434 0 0 0-1.266-3.281c-1.557-2.918-.818-.694-1.725-1.91.183-.216-.229-1.386-.519-2.247-.318-.854-.507-1.404.214-.381a48.216 48.216 0 0 0-3.412-5.869 25.425 25.425 0 0 0-2.21-2.724 18.8 18.8 0 0 0-3.775-3.053c.54.62 1.21 1.302.724 1.131-1.138-.786-2.324-1.9-2.013-2.005l.298.143a12.651 12.651 0 0 1-2.326-1.576c-.36-.298-.675-.656-1.01-.994a12.003 12.003 0 0 1-.86-1.127 13.156 13.156 0 0 1-1.974-5.382c-.579-3.874-.35-8.053-1.287-11.216l.093.353a49.269 49.269 0 0 0-1.69-6.587c-.35-1.535-.156-1.106.13-.58.26.527.576 1.162.442-.028a60.262 60.262 0 0 0-4.065-8.65 23.552 23.552 0 0 0-5.388-6.503 9.346 9.346 0 0 0-1.223-1.74c-.27-.319-.532-.615-.788-.895q-.4-.433-.849-.88c-1.16-1.224-2.498-2.583-3.786-4.068a31.765 31.765 0 0 1-5.914-9.254l-.148.47c-1.04-1.158-.704-1.71-1.16-2.738-.17.27.498 1.611-.12.865-1.63-2.806-3.084-5.82-4.817-8.892a35.88 35.88 0 0 0-3.003-4.574 18.703 18.703 0 0 0-4.306-4.04c-.419-.29-.879-.525-1.321-.787-.461-.223-.926-.45-1.4-.647-.462-.168-.995-.38-1.408-.504l-1.264-.393c-1.682-.534-3.396-1-5.103-1.43-3.43-.882-6.8-1.427-9.566-2.44a8.002 8.002 0 0 0-3.662-.647c-.863-.052-1.898-.204-4.21-2.17.592.138 1.192.225 1.78.321-1.064-.49-2.102-1.127-3.145-1.735-1.026-.672-2.062-1.32-3.065-2.06a124.263 124.263 0 0 1-5.948-4.575c-.939-.78-1.932-1.596-2.693-2.332a9.455 9.455 0 0 1-.34-.358l-.01-.016-.062-.095a3.287 3.287 0 0 0-.424-.538 3.577 3.577 0 0 0-.25-.244l-.162-.132c-.1-.08-.236-.19-.31-.24-.317-.222-.62-.425-.886-.592l-.821-.518a128.46 128.46 0 0 0-3.223-1.937l-.806-.465-.888-.46c-.6-.299-1.188-.611-1.795-.873a3.71 3.71 0 0 1 1.643.511 12.813 12.813 0 0 0-4.507-2.262c-1.747-.556-3.301-.655-3.358-.482-1.592-.439-.29-.451-1.258-.843a9.927 9.927 0 0 0-1.845-.34c-.663-.027-1.346-.02-1.992-.013a10.831 10.831 0 0 1-3.035-.05c-.207-.064.63-.198 1.047-.209-.371.037-.983.097-1.673.143-.69.03-1.454.112-2.125.205-1.347.163-2.301.459-1.566.594a19.2 19.2 0 0 0-5.522 1.447 22.617 22.617 0 0 0-2.526 1.239l-.656.408-.557.39c-.359.26-.717.516-1.058.784-.63.972-1.877 2.288-2.74 3.666-.878 1.362-1.4 2.686-1.107 3.149-.33-.248-1.04.94-1.54 2.862a6.077 6.077 0 0 0-.104.67l-.036.467-.035.857c-.015.567-.01 1.128.003 1.668a22.867 22.867 0 0 0 .204 2.705c-.255-.785-.33 2.016-.688 1.095-.047 2.656.079 5.086.552 4.633-1.173 4.864.71 9.82-.715 12.546.376 7.871.622 15.15.758 22.224-.9-.264-.004-7.818-.954-7.526.295 6.715 1.03 10.593.746 17.243-.14 1.722-.381-.981-.53-1.565.305 6.706-.205 12.96.236 18.928a3.915 3.915 0 0 1-.234-1.27c.02 1.176-.155 2.732.256 2.603l-.102-1.147c.61-1.871 1.204 4.678 1.517 4.89-1.16-2.004-.343 5.89-1.802 2.708.07.775.257 1.746.533 1.571-.089 1.147-.252 1.51-.555.344.19 4.212.638 2.72.6 6.534-.199-.015-.27-.786-.5-1.182a25.212 25.212 0 0 1 .554 7.1c-.118-.195-.276.178-.267-.784.02 5.537.965 9.443.553 15.513-.852-1.797-.298 2.064-1.046 2.381l.203 3.267.37-1.308c-.03 2.86.499 5.392.24 7.85l-.295-2.128.111 5.361.3-3.032c.369 2.896.947-.305.718 3.501-.072-.774-.025 2.861-.473 4.35l-.002-.01a17.812 17.812 0 0 1 .277 4.988c-.241.548-.823-.446-.984-.09.617 1.4.14 6.7.798 8.472-.154-.59-.545-.623-.626-.43l.501 1.175c-.168 1.324-.247 1.518-.559 1.301-.11 3.986.953-1.262.524 3.467a6.765 6.765 0 0 1-.19-.968c-.232 4.75.285 9.18.02 13.545-.756 1.286-.17-3.815-.81-2.343.113 6.296.857 13.038.665 19.13l.086-1.136c1.058.847-.536 4.536-.042 7.617-.077-.754-.587-.99-.47-.786-.179 4.172.244 8.53.57 14.852l-.271-.784c-.246 2.458-.147 6.475-.272 9.13.272.789.227 2.308.623 1.385-1.555 8.189.834 15.619-.447 22.886-.005-.869-.242-2.07-.241-1.38l.261 6.189c.461-.49.278-.812.636-2.113a15.298 15.298 0 0 1 .495 4.063c-.313-2.782-.743.026-.998 1.228.141-.202.299.21.442.108-.813 3.235.931.54.39 4.954l-.243-.233a40.874 40.874 0 0 1 .392 4.954c-.532.74-.256-1.757-.696-1.87.04 2.503 1.03 4.934.508 7.2-.154-1.061-.162-2.59-.315-3.652a15.79 15.79 0 0 0-.548 4.587l.013-.18-.264 4.237.165-1.08c1.41 3.124.288 6.375 1.229 10.587-.891-4.094-.505-.674-1.112-.984-.162 1.078-.339 2.717-.513 2.252.503 1.99-.36 3.331.376 6.14-.193.127 0 2.133-.494 1.687.175 2.592.334-.616.58-.4.7 3.99-.723 9.402.265 15.14.44 4.952 1.112 5.858 1.515 10.45-.286 1.557-.732-1.259-.732-1.259a29.316 29.316 0 0 0 .113 6.748c-.18-.474-.314.02-.518.745.09 1.893.736 1.251.506 3.755a7.33 7.33 0 0 1-.827-1.874c.229 2.23.647 4.426.89 6.732-.322.623-.557-1.38-.798-2.19.217 2.595.509 6.727 1.08 7.51l.133-1.674c.059.945-.445.503-.567-.192-.496-2.214.086-3.218.278-3.35l.174 1.642c1.087-1.723-.372-6.6-.371-9.917l.862 1.362-.762-3.382c.203-.726.658-1.23.814.403.365-2.38-.337-2.095.085-4.142.067-.226.11-.125.146.082l-.287-2.314c.182.452.58-.395.484 1.03.41-4.167-.728-6.7-.118-8.276l.056.347c-.356-5.77-.62-.55-1.39-4.874l1.474-2.932-.617-.561c.016-.596.05-1.775.296-1.56-.44-2.213-.262.381-.67-.902.526-2.873-.332-7.906.636-8.56-.472-1.026-.336 2.745-.683-.314 1.039-.881-.207-3.538.255-6.161.545.8.278 3.284.741.66-.924-1.575.166-5.103-.02-7.311-.727-.1-.33-4.804-.587-8.51.244.233.37-6.98.624-10.43l.122.101c-.736-.665-.608-4.225-.765-6.815.44.1.614.566.814 1.97l-.009-2.436a9.09 9.09 0 0 1-.449-2.913l.55.611c-.037-3.242-.657-6.527-.294-10.7-.513-.233-1.424 3.32-1.77-1.091.277-.164.75-.327.865.827a8.44 8.44 0 0 1-.113-2.11l.467 1.762c.203-1.9-.39-.993-.348-2.512.395.03.282-1.125.595-.907a10.27 10.27 0 0 0-.007 1.907 18.167 18.167 0 0 1 .602-4.468c-.225.15-.532 0-.583-1.254-.03-3.242.474-1.11.678-3-.275-.785.01-2.853-.58-2.908a2.463 2.463 0 0 1 .439-1.49c-.261-1.678-.07-7.837-.7-5.947l-.041.43-.026-.274v.014-.014c-.582-5.5.348-11.424.107-16.88l.198.008c-.22-3.258-.117-7.25-.536-9.577.003-.964.367-2.273.6-1.86a27.606 27.606 0 0 1-.025-6.366c.337 2.504.308-.863.245 2.566.18-3.235.499-3.967-.029-7.442.502 1.184.645-2.433.5-3.972l-.37 2.266c-.068-1.73-.017-3.241.031-4.777l.663.833c.834-6.617-1.33-11.946.05-16.98-.458-1.753-.345 3.595-.882 2.026.104-3.045 1.074-6.213 1.081-7.167.39-4.17-.952-3.897-.677-8.261-.24.557-.877 1.08-1.082-2.183.105-3.048 1.016-3.74 1.196-1.816.016.731-.062 1.084-.142 1.052.081.985.176 2.278.44 1.073l-.236-.397c.25-1.51.25-5.704.634-4.717-.213-2.304-.384-.987-.517.719.366-3.907.046-6.107.302-10.129-.135.639-.417 1.227-.41.59.33-5.9-.435-2.602-.513-6.601.377-2.27.859.82.583-3.207.261-2.457.633-.517.82.462-.433-3.67.348-6.85.447-8.944l.178 1.933a28.836 28.836 0 0 1-.087-3.065l-.483 1.1c.091-1.134.1-2.094.297-2.071-.302-1.172-.796.888-1.204-1.434.253-1.51-.224-4.607.41-5.124-.25 4.754.637-.52.708 3.505a17.216 17.216 0 0 1 .033-2.86c.072-.17.13.161.163.472.599-4.546-.696-2.097-.644-6.813.35.602.683-1.088.613-1.858-.023 1.9-.6.904-.857-.841.302-3.022-.178-3.289-.132-4.872l-.146 1.807c-.35-.616-.29-2.128-.383-4.236.277-.178.173 1.915.301 1.164-.603-2.346.693-5.283.303-8.55.255-1.509.669-.14.844-1.466-.425-3.661.524-3.955.182-7.803-.488 1.103-.373 1.298-.81-1.414l.272 6.323-.654-4.063c-.026 1.907.26 4.028.168 5.17-.37-1.936-.254-1.737-.658-.827.74-2.603-.367-5.179.148-8.191l1.18.104c.575-4.53-.52-8.064-.153-13.95l-.228 1.89c-.46-.795-.022-3.636-.189-5.545.393.182.552-1.008.807-1.819-.294.095.084-4.308-.697-4.854l.557-2.621c.283-4.75-1.045-5.442-.831-10.01.405 1.384.72-.687.975 2.378.03-1.525.127-2.894-.146-2.924.262-.885-.451-4.238-.041-5.63a4.96 4.96 0 0 1-.487-2.573c.085-.184.195.012.195.012-.199-.013-.176-2.676-.665-1.203.11-.367.207-.757.293-1.167.091-.39.158-.888.257-1.156a21.118 21.118 0 0 1 3.21-6.572 9.678 9.678 0 0 1 2.579-2.294 6.845 6.845 0 0 1 2.696-.826 25.545 25.545 0 0 1 9.647-1.834c-.187.114-.012.197-.557.144a6.972 6.972 0 0 0 3.314-.19 3.586 3.586 0 0 1 1.31-.163 7.22 7.22 0 0 1 2.441.53c2.1 1.193-2.439-.266-1.083.329.16.734 1.472.93 3.042 1.414a15.839 15.839 0 0 1 2.444.878 7.785 7.785 0 0 1 2.07 1.391l-.667-.289a20.645 20.645 0 0 0 3.712 2.199c.75.376 1.562.774 2.342 1.208.34.168.901.572.692.38a8.55 8.55 0 0 0 1.227 1.38s-.233-.061-.153.125c2.588 1.481 6.729 4.416 9.963 6.585-1.26-.312-1.564-.839-1.284.017 1.443.968.063-.933 2.962.947.733.9 2.716 2.452 2.706 3.11-.926-.6-1.874-1.179-2.774-1.806a6.246 6.246 0 0 0 2.349 1.89c.973.502 1.98.942 2.733 1.416l-.352.166a17.213 17.213 0 0 0 5.02 1.793c1.36.258 2.763.54 5.412 1.093l-.5-.347c3.031-.176 2.338.89 5.29.891l.693.95c.948.1 2.608.275 4.45.565.899.165 1.925.297 2.79.524a10.682 10.682 0 0 1 2.46.93 32.123 32.123 0 0 0-3.771-.776c-1.538-.238-3.136-.464-4.365-.575l3.894.914 1.88.427a6.306 6.306 0 0 0 1.162.251c-.324-.12-.712-.197-1.074-.314a4.174 4.174 0 0 1-1.056-.348 7.906 7.906 0 0 1 3.638.909 11.45 11.45 0 0 1 3.717 3.197c-.79.237.601 2.077 1.933 4.58 1.355 2.478 2.82 5.48 2.943 6.98 1.819 2.878 3.386 5.907 5.3 8.955a43.914 43.914 0 0 0 7.137 8.965c-.619-1.447-.182-1.028.457-.414.653.605 1.55 1.383 1.77.76a9.687 9.687 0 0 1 1.918 1.803 36.244 36.244 0 0 1 2.952 4.45c.46 1.188-1.213-1.122-1.333-.817 1.123 1.478 1.204 1.888 1.208 2.163-.014.284-.076.428.392 1.524.105-.65 1.259.722 1.954 2.682a26.028 26.028 0 0 0-.86-2.857 8.19 8.19 0 0 1 1.91 4.398 18.619 18.619 0 0 0 1.126 4.716q-.348-.78-.74-1.517a36.388 36.388 0 0 1 1.255 6.22 27.614 27.614 0 0 0 1.413 6.63c-.078.54-.328 1.284-.57-.022a25.534 25.534 0 0 0 1.18 5.704 17.948 17.948 0 0 0 3.044 5.537 20.94 20.94 0 0 0 4.358 3.949 16.121 16.121 0 0 1 3.355 2.685l-.53-.075c.871.632 1.8.936 2.48 2.261-.146.016-.523-.177-.21.25a13.252 13.252 0 0 1 2.843 3.854l-.97-1.048c1.43 2.84 2.628 5.068 3.876 7.134.588 1.048 1.233 2.073 1.784 3.133.261.527.523 1.07.784 1.639.126.285.268.573.381.875l.29.94c-.214.054-.314.402-.34.92a8.179 8.179 0 0 0 .017.894c-.014.336-.016.701-.01 1.082.022.76.08 1.582.025 2.37a17.948 17.948 0 0 1-.103 2.125l-.121-.086a82.522 82.522 0 0 1-1.238 9.835 51.78 51.78 0 0 0-.86 10.493c-.546 2.403-.264 6.647 1.436 10.924a22.517 22.517 0 0 0 3.662 6.058 25.05 25.05 0 0 1 3.338 4.428c-.17-.42-.013-.492.277-.336a2.82 2.82 0 0 1 .994 1.02 8.682 8.682 0 0 0 .497 1.14c.164.426.374.83.517 1.24.27.844.413 1.48-.01 1.444l-.113-.56c-.456 1.365.39 4.45.262 6.819q.513.21 1.027.445c-.412 1.62-.992 3.346-1.546 5.435a26.356 26.356 0 0 0-.994 6.891c.075 4.7 1.31 8.539 1.183 10.658.376.825.705 1.772 1.055 2.704.389.91.776 1.817 1.19 2.595l-.565.101c.707 2.363 1.426 4.024 2.127 5.868l1.105 2.762a32.734 32.734 0 0 1 1.051 3.326l-.654-.948a9.577 9.577 0 0 0 .642 1.775c.245.496.536.922.778 1.36a5.594 5.594 0 0 1 1 3.233 26.24 26.24 0 0 1-.872.817 26.424 26.424 0 0 1-1.99 7.819c-.484 1.284-1.05 2.56-1.564 3.86-.555 1.323-1.005 2.574-1.504 3.816-.072-.141-.185-.387.177-1.17a40.16 40.16 0 0 1-3.214 4.774c-1.275 1.698-2.243 3.363-1.445 3.239-.306-.176-1.331 1.12-2.107 3.193a16.774 16.774 0 0 0-.844 6.346c-.177-.185-.366-.37-.527-.566.279 1.482.5 2.194.667 2.989a22.772 22.772 0 0 1 .336 3.586c-.091.863-.455.75-.298-.397a7.762 7.762 0 0 0 .048 2.63 7.441 7.441 0 0 1-.112 3.04l-.233-1.293a14.831 14.831 0 0 0-.08 4.237 9.062 9.062 0 0 1-1.136 3.229 4.463 4.463 0 0 1-1.593 1.877 5.775 5.775 0 0 1-1.457 3.407c-.283.078-.034-.498.09-.782a28.14 28.14 0 0 1-1.933 2.297c-.602.62-1.3 1.286-1.872 1.943a37.658 37.658 0 0 1-3.409 3.684c-.188-.063-.406.054-.637.243a45.818 45.818 0 0 1 3.526-3.865 11.606 11.606 0 0 1 1.453-1.265c-.315-.441-2.942 1.895-1.387-.523a45.614 45.614 0 0 0-3.07 4.25 39.47 39.47 0 0 1-3.177 4.358 1.668 1.668 0 0 1-.398.225l.156-.296a8.278 8.278 0 0 0-1.151 1.66 22.302 22.302 0 0 0-1.684 2.062c-.575.06-2.346 2.986-3.206 4.387.547.185-.66 1.952.794.495-.169.2.101-.3.665-1.228a6.892 6.892 0 0 0 .334-.614l-.02.12a81.499 81.499 0 0 1 2.254-3.378 11.758 11.758 0 0 1-2.317 3.795c-.157.896-.312 1.876-.44 2.4-1.846 1.46-4.288 5.03-4.985 5.337-1.033 2.27-2.277 4.895-3.347 7.31a36.267 36.267 0 0 0-2.324 6.181c-.6 1.237-1.081 1.19-1.491 1.51a13.936 13.936 0 0 0 .917-1.936 21.526 21.526 0 0 1-1.147 2.093 20.494 20.494 0 0 1-1.488 2.093c-1.03 1.313-2.095 2.279-2.116 2.776-1.454.855-1.168.418-.98.157.095-.134.164-.234-.015-.135l-1.553 1.01.401-.508a92.244 92.244 0 0 1-5.685 2.28c-1.824.67-3.624 1.294-5.511 1.836a43.468 43.468 0 0 1-13.211 1.684 3.145 3.145 0 0 1 1.282.095 30.878 30.878 0 0 0-9.206 1.823c-3.15 1.33-5.492 3.634-7.743 5.665a37.779 37.779 0 0 1-7.172 5.384c-.658.331-1.283.722-1.967.99l-2.027.821a27.41 27.41 0 0 1-4.2 1.04c-.8.145-1.404.312-1.91.437a8.917 8.917 0 0 0-1.261.36c-.712.254-1.254.59-2.23.903l-.786-.529c-1.109.33-2.226.72-3.368 1.006a18.107 18.107 0 0 1-3.505.109 13.087 13.087 0 0 1-1.665-.214c-.55-.093-1.098-.18-1.656-.323a47.142 47.142 0 0 0-7.67-1.275l.694.572a44.094 44.094 0 0 0-1.993-.447l-2.225-.545c-1.394-.384-2.45-.757-2.203-.921a2.135 2.135 0 0 1-1.59-.299l.037-.32c-1.79-.398-3.556-.9-5.311-1.458-1.898-.975-1.591-1.213-1.54-1.501.071-.308-.16-.623-2.711-2.127-.481-.26-1.1-.53-1.675-.85l-.89-.452-.792-.455c-.957-.57-1.615-1.035-1.46-.666.295.31.562.78.874 1.141.294.37.494.709.42.855l-.845-.625c-.28-.212-.506-.473-.766-.71-.492.161-1.207.022-1.427.441-.224.342.11 1.718 2.297 3.717a17.073 17.073 0 0 0 1.817.867c.605.261 1.205.52 1.816.723l.882.982c-.961-.5-1.925-.986-2.866-1.579a7.22 7.22 0 0 0 1.014.83 6.84 6.84 0 0 0 .983.49 11.78 11.78 0 0 0 1.903.56 3.245 3.245 0 0 0 1.241 1.134c1.271.216 2.521.437 3.779.576.295.502-1.818.085.45 1.16 1.771.198-1.282-1.317 1.502-.628 1.558.971.962 1.156 3.087 1.413.217.315-.254.334-1.091.192 1.88.3 4.847 1.23 5.91.932a14.575 14.575 0 0 0 3.744.977c1.326.197 2.392.398 2.248.824a22.498 22.498 0 0 1 2.17-.226c.993-.054 2.144-.19 3.02-.171-1.622.48.05.58 1.955.508.958-.019 1.99-.032 2.735.02.748.01 1.213.114 1.024.417 1.151-.597 3.262-.85 5.6-1.381a30.582 30.582 0 0 0 3.56-.895 17.73 17.73 0 0 0 3.24-1.286 2.764 2.764 0 0 1-.962.528c2.308-.68 3.032-.805 4.556-1.27-.017-.395.761-1.124 1.733-1.883.497-.366.984-.833 1.465-1.251a10.497 10.497 0 0 0 1.241-1.233c2.776-1.12-.874 1.797.249 1.844-.225-.204.715-1.1 1.562-1.915.825-.83 1.527-1.601.985-1.491 1.978-1.041 1.567-1.043 2.84-1.277-.366-.981 1.36-1.432 2.263-2.942 1.284-.663 1.547-.58 1.794-.565a.797.797 0 0 0 .46-.152c.224-.127.552-.411 1.136-.735 1.256-.254-.701 1.014-.677 1.096zm58.616-46.701l.01.007-.977 1.318.967-1.325zm4.24-5.061a32.392 32.392 0 0 0-1.9 2.114c-.297.055-.292-.27.149-.773-.135.364.962-.761 1.75-1.341zm-11.848 8.873c.547-.952.857-1.185 1.034-1.243-.282.432-.627.927-1.023 1.615 0 .038-.016.106-.014.145a1.055 1.055 0 0 1 .003-.517z"/><path class="cls-4" d="M287.375 310.939c-.077.137-.105.222-.207.399l.457-.476.064-.417zM165.895 218.197l.013-.142a1.26 1.26 0 0 1-.08.298 1.04 1.04 0 0 1 .067-.156zM317.187 212.583l-.135.043.277.513-.142-.556zM163.99 255.342a1.238 1.238 0 0 0-.142.488 1.594 1.594 0 0 0 .142-.488zM163.92 271.39l-.19 2.27c.109-.982.16-1.698.19-2.27zM163.708 283.73a.624.624 0 0 0 .243.24l.004-.024zM163.53 87.562a5.719 5.719 0 0 0-.02-.476c-.1-1.118-.063-.359.02.476zM164.444 145.944a28.372 28.372 0 0 1-.256-1.878c-.048 1.04-.063 1.847.256 1.878zM163.663 22.342c.003.007.005 0 .01.007l.008-.403zM164.213 141.352a12.962 12.962 0 0 0-.024 2.714 19.98 19.98 0 0 0 .024-2.714zM164.264 337.238l-.004.597c.037-.011.069.023.093.068zM164.353 337.903l.09.659a1.728 1.728 0 0 0-.09-.66zM164.636 339.95l-.193-1.388a3.67 3.67 0 0 0 .193 1.387zM164.127 320.881l-.208-.184a.282.282 0 0 0 .208.184z"/><path class="cls-4" d="M163.985 315.916a34.16 34.16 0 0 0-.23 4.63l.164.151c-.317-.772.426-3.662.066-4.78zM166.26 295.171l-.123 4.159c.21-.729.492-1.687.563.203.598-5.246-.477 1.086-.44-4.362zM166.48 282.278c.115 2.233.315-.028.438.09-.206-1.416-.258-1.76-.438-.09zM166.398 189.107l.511.226c-.068-1.722-.198-.017-.51-.226zM163.814 171.285l-.324 1.675.466.8-.142-2.475zM167.502 160.778l.07.753-.173-2.874.103 2.121zM173.7 7.795a12.562 12.562 0 0 0-.745-.222c-.368.374-.45.739-.314.84.14.103.467-.054 1.058-.618zM232.018 28.83a7.415 7.415 0 0 0 3.728.94c-1.478-.324-2.935-.848-3.728-.94zM312.812 195.049c.021-.427-.005-.829-.004-1.238-.036.38-.054.752-.1 1.142l-.18 1.188z"/><circle class="cls-6" cx="179.822" cy="64.301" r="2.573"/><circle class="cls-6" cx="190.907" cy="49.257" r="2.573"/><circle class="cls-6" cx="200.012" cy="44.111" r="2.573"/><circle class="cls-6" cx="212.68" cy="44.903" r="2.573"/><circle class="cls-6" cx="181.981" cy="27.412" r="2.573"/><circle class="cls-6" cx="199.4" cy="27.412" r="2.573"/><circle class="cls-6" cx="195.063" cy="64.895" r="2.573"/><circle class="cls-6" cx="212.482" cy="64.895" r="2.573"/><circle class="cls-6" cx="186.75" cy="75.583" r="2.573"/><circle class="cls-6" cx="195.855" cy="129.819" r="2.573"/><circle class="cls-6" cx="204.189" cy="76" r="2.573"/><circle class="cls-6" cx="211.294" cy="161.094" r="2.573"/><circle class="cls-6" cx="212.356" cy="143.05" r="2.573"/><circle class="cls-6" cx="180.146" cy="210.265" r="2.573"/><circle class="cls-6" cx="183.583" cy="139.716" r="2.573"/><circle class="cls-6" cx="191.5" cy="139.716" r="2.573"/><circle class="cls-6" cx="183.583" cy="147.634" r="2.573"/><circle class="cls-6" cx="191.5" cy="147.634" r="2.573"/><circle class="cls-6" cx="198.626" cy="99.732" r="2.573"/><circle class="cls-6" cx="220.796" cy="122.297" r="2.573"/><circle class="cls-6" cx="224.583" cy="55.716" r="2.573"/><circle class="cls-6" cx="224.583" cy="64.838" r="2.573"/><circle class="cls-6" cx="224.68" cy="37.903" r="2.573"/><circle class="cls-6" cx="249.68" cy="50.903" r="2.573"/><circle class="cls-6" cx="211.68" cy="106.903" r="2.573"/><circle class="cls-6" cx="236.68" cy="64.903" r="2.573"/><circle class="cls-6" cx="257.68" cy="64.903" r="2.573"/><circle class="cls-6" cx="224.583" cy="76.838" r="2.573"/><circle class="cls-6" cx="251.583" cy="76.838" r="2.573"/><circle class="cls-6" cx="244.583" cy="113.838" r="2.573"/><circle class="cls-6" cx="244.583" cy="126.838" r="2.573"/><circle class="cls-6" cx="280.583" cy="113.838" r="2.573"/><circle class="cls-6" cx="254.583" cy="138.839" r="2.573"/><circle class="cls-6" cx="291.583" cy="136.839" r="2.573"/><circle class="cls-6" cx="273.583" cy="153.839" r="2.573"/><circle class="cls-6" cx="274.583" cy="228.839" r="2.573"/><circle class="cls-6" cx="211.294" cy="173.094" r="2.573"/><circle class="cls-6" cx="254.294" cy="153.094" r="2.573"/><circle class="cls-6" cx="254.294" cy="173.094" r="2.573"/><circle class="cls-6" cx="259.294" cy="229.094" r="2.573"/><circle class="cls-6" cx="254.294" cy="187.094" r="2.573"/><circle class="cls-6" cx="271.294" cy="187.094" r="2.573"/><circle class="cls-6" cx="254.294" cy="211.094" r="2.573"/><circle class="cls-6" cx="198.294" cy="210.094" r="2.573"/><circle class="cls-6" cx="230.294" cy="198.094" r="2.573"/><circle class="cls-6" cx="237.294" cy="211.094" r="2.573"/><circle class="cls-6" cx="304.294" cy="225.094" r="2.573"/><circle class="cls-6" cx="228.294" cy="291.094" r="2.573"/><circle class="cls-6" cx="191.294" cy="234.094" r="2.573"/><circle class="cls-6" cx="191.294" cy="242.094" r="2.573"/><circle class="cls-6" cx="209.294" cy="221.094" r="2.573"/><circle class="cls-6" cx="199.501" cy="233.88" r="2.573"/><circle class="cls-6" cx="199.501" cy="241.797" r="2.573"/><circle class="cls-6" cx="209.501" cy="233.88" r="2.573"/><circle class="cls-6" cx="198.749" cy="269.88" r="2.573"/><circle class="cls-6" cx="201.501" cy="294.88" r="2.573"/><circle class="cls-6" cx="237.501" cy="254.88" r="2.573"/><circle class="cls-6" cx="288.501" cy="254.88" r="2.573"/><circle class="cls-6" cx="237.501" cy="269.88" r="2.573"/><circle class="cls-6" cx="267.501" cy="311.88" r="2.573"/><circle class="cls-6" cx="267.501" cy="287.88" r="2.573"/><circle class="cls-6" cx="250.501" cy="282.88" r="2.573"/><circle class="cls-6" cx="176.501" cy="314.339" r="2.573"/><circle class="cls-6" cx="176.501" cy="344.88" r="2.573"/><circle class="cls-6" cx="196.501" cy="344.88" r="2.573"/><circle class="cls-6" cx="255.501" cy="311.88" r="2.573"/><path class="cls-8" d="M135.249 346.339h-32v-15h-38l-14-16v-15h-13l-14-24v-31h22v11h57v22.5"/><path class="cls-8" d="M38.249 260.339v10h11v16h18v28h54v20M96.249 216.339l-7 7v16h-28v-11h-35v-19h12"/><path class="cls-8" d="M101.999 237.294l19.512 17.512v43.565H84.487v-28.242M93.749 270.839h-33M76.249 229.339v-19h-26v-17.5h-15.5v-66l13.75-12.5M134.249 332.339v-60h13v-20l-18.034-16.5v-27.5M113.249 225.839v-21.355h-20l-13.5-12.878v-18.108l12.25-11.685h21.25l16.875-16.097V73.339"/><path class="cls-8" d="M51.749 96.339l17.5 18-22 21v44h18v21.5"/><path class="cls-8" d="M63.249 166.339v-23l23.5-.5h24.5v-16.5h-29v-88M52.749 80.339l18 18v-41"/><path class="cls-8" d="M96.249 112.339h15v-39l19.5-19.5v-20.5l17.25-17.25M96.249 99.339v-42h15v-19h-15M94.249 175.339v15h38l13.5 13.248v28.252M111.749 174.839h24l12-12v-119"/><path class="cls-7" d="M179.624 61.728V44.705l6.532-6.532h8.512l3.86 3.859M192.689 51.435l2.573 2.573h17.616V47.08M184.752 27.412h11.877M197.834 64.895h11.877M189.076 76.679l4.228 4.227v9.523l-7.335 7.334v21.961l8.209 8.209M206.191 78.397l28.263 28.263v10.293l-3.365 3.365v7.324l11.777 11.777v6.433l-15.29 15.291h-13.708M210.659 144.748l-21.585 21.585v34.609l-7.111 7.11"/><path class="cls-7" d="M198.429 102.305v11.877l7.917 7.917h11.877M225.749 39.839l9 11h13M213.749 104.838l10.5-10.5M239.749 64.838h15M247.749 113.839h22l-.107-16.876-16.893-18.124"/><path class="cls-7" d="M226.749 76.963h9.533l24.557 26.5h8.803M280.749 116.839v10h-34M280.749 126.839v12h-24M291.538 139.804v71.978l-15.557 15.557"/><path class="cls-7" d="M291.538 161.63l-7.662-7.662h-8.127M213.749 172.839h22l17-17M256.749 172.839h26v32l-22 22M199.749 207.839l19-21h33M268.749 186.839h-11.5M254.249 189.839v19M228.249 200.339l-8.5 10.5v71.666l6.25 6.25"/><path class="cls-7" d="M237.249 213.339v28h51l14-14M206.749 220.839h-28v13h10M178.749 233.839v8h10M209.749 236.839v18h-31v17l21.5 21.5M198.749 254.839v13M239.749 254.839h47M239.749 269.839h46v24l-17 17M267.501 269.839v15"/><path class="cls-7" d="M250.749 284.839v10l-19.5 19.5h-51.5M253.749 313.839l-15.5 15.5h-26.5l-13.75 13.75"/><path class="cls-7" d="M211.749 329.389h-20l-14.5 13.5"/></svg>