<svg id="Шар_1" data-name="Шар 1" xmlns="http://www.w3.org/2000/svg" viewBox="0 0 85.108 122.279"><defs><style>.cls-1{fill:url(#Градієнт_без_назви_88)}.cls-2{fill:#818199}.cls-3{opacity:.45}.cls-4{fill:#fff}</style><radialGradient id="Градієнт_без_назви_88" cx="41.831" cy="53.012" r="47.85" gradientTransform="matrix(1 0 0 1.15 0 -7.952)" gradientUnits="userSpaceOnUse"><stop offset=".551" stop-color="#db4275" stop-opacity=".1"/><stop offset=".624" stop-color="#db4275" stop-opacity=".131"/><stop offset=".806" stop-color="#db4275" stop-opacity=".183"/><stop offset="1" stop-color="#db4275" stop-opacity=".2"/></radialGradient></defs><title>bulb</title><path class="cls-1" d="M65 7C46.324-6.582 19.477.593 6.828 18.85.573 27.877-1.36 40.546.523 51.256c1.761 10.01 8.317 15.786 13.981 23.543 5.821 7.97 4.59 19.182 10.407 26.827C29 107 34.917 106 41 106c3 0 12.908.032 15.846-1.517 2.656-1.402 3.186-5.529 4.079-8.3 3.053-9.473 5.577-17.965 12.12-25.58C90.33 50.484 86.245 22.45 65 7z" transform="translate(.728 .128)"/><path class="cls-2" d="M64.941 7.08A37.09 37.09 0 0 0 47.681.39a41.327 41.327 0 0 0-18.42 2.063 45.69 45.69 0 0 0-15.879 9.515l-.867.775c-.275.272-.53.566-.795.848l-1.579 1.707a18.53 18.53 0 0 0-1.455 1.809l-1.402 1.85a35.612 35.612 0 0 0-4.17 8.244A46.768 46.768 0 0 0 .468 45.439a38.289 38.289 0 0 0 1.48 9.087 31.63 31.63 0 0 0 4.11 8.197c1.726 2.557 3.722 4.95 5.689 7.388.98 1.223 1.968 2.444 2.91 3.712.486.61.916 1.317 1.37 1.983.406.696.808 1.4 1.153 2.125 2.791 5.844 3.31 12.272 5.539 17.954a22.451 22.451 0 0 0 2.023 4.042 11.738 11.738 0 0 0 2.916 3.233c2.315 1.742 5.396 2.034 8.441 2.016l9.36-.16a54.642 54.642 0 0 0 9.145-.846 6.757 6.757 0 0 0 1.908-.654 3.964 3.964 0 0 0 1.287-1.336 15.576 15.576 0 0 0 1.53-4.098c.2-.747.399-1.524.649-2.304l.712-2.236c.474-1.49.954-2.987 1.465-4.475 2.03-5.937 4.527-11.92 8.454-17.02.474-.646 1.004-1.247 1.514-1.864l1.437-1.808 1.427-1.804c.489-.593.841-1.28 1.27-1.914l1.233-1.941a21.685 21.685 0 0 0 1.067-2.034l1.024-2.06c.346-.684.554-1.427.838-2.139a40.94 40.94 0 0 0 2.62-18.1 41.718 41.718 0 0 0-5.577-17.575A47.272 47.272 0 0 0 64.94 7.081zm.118-.16a47.624 47.624 0 0 1 12.835 13.628 43.003 43.003 0 0 1 6.211 17.729 41.876 41.876 0 0 1-2.132 18.778c-.282.745-.487 1.523-.833 2.241l-1.023 2.162a23.045 23.045 0 0 1-1.073 2.137l-1.245 2.043c-.432.669-.791 1.39-1.286 2.016l-1.448 1.904-1.449 1.89c-.475.598-.97 1.18-1.41 1.804-3.718 4.869-6.1 10.612-8.083 16.485l-1.468 4.438-.725 2.231c-.232.709-.426 1.446-.635 2.208a17.288 17.288 0 0 1-1.797 4.638 5.952 5.952 0 0 1-1.965 1.978 8.545 8.545 0 0 1-2.504.874c-6.425 1.161-12.67.682-18.932.862a24.394 24.394 0 0 1-4.842-.43 11.413 11.413 0 0 1-4.598-2.008 13.406 13.406 0 0 1-3.303-3.714 24.068 24.068 0 0 1-2.127-4.353c-2.273-6.008-2.741-12.371-5.354-17.906-.32-.687-.693-1.348-1.067-2.004-.425-.628-.798-1.266-1.282-1.885-.913-1.252-1.883-2.47-2.85-3.695-1.94-2.446-3.94-4.88-5.695-7.523A32.894 32.894 0 0 1 .78 54.892 39.424 39.424 0 0 1-.68 45.493a47.835 47.835 0 0 1 2.855-18.638 36.538 36.538 0 0 1 4.408-8.387l1.46-1.867a19.079 19.079 0 0 1 1.511-1.82l1.633-1.713c.275-.283.539-.577.823-.85l.894-.774a46.255 46.255 0 0 1 16.224-9.39A42.033 42.033 0 0 1 47.706.192 37.291 37.291 0 0 1 65.06 6.919z" transform="translate(.728 .128)"/><path class="cls-2" d="M38.608 106a181.617 181.617 0 0 0 .599-23.693 45.948 45.948 0 0 0-.695-5.821 13.113 13.113 0 0 0-.816-2.72 4.276 4.276 0 0 0-.684-1.103 3.011 3.011 0 0 0-1.028-.689 16.678 16.678 0 0 0-5.59-.942c-1.951-.08-3.913-.026-5.91-.016-.501 0-1.003-.001-1.526-.028a7.29 7.29 0 0 1-.83-.086 2.174 2.174 0 0 1-.542-.155 1.583 1.583 0 0 1-.548-.415 2.467 2.467 0 0 1-.461-2.053 6.636 6.636 0 0 1 .5-1.614 13.198 13.198 0 0 1 1.633-2.707 10.174 10.174 0 0 1 2.323-2.267 3.197 3.197 0 0 1 .925-.422 1.711 1.711 0 0 1 .721-.036 1.438 1.438 0 0 1 .804.431 2.035 2.035 0 0 1 .481 1.18 4.807 4.807 0 0 1 .002.91 11.04 11.04 0 0 1-.27 1.59l-.193.752a2.359 2.359 0 0 1-.51 1.027 1.63 1.63 0 0 1-1.457.493 2.728 2.728 0 0 1-1.017-.404 6.365 6.365 0 0 1-1.304-1.133 11.46 11.46 0 0 1-1.787-2.678 8.388 8.388 0 0 1-.577-1.56 4.245 4.245 0 0 1-.093-1.883 2.498 2.498 0 0 1 .504-1.062 2.416 2.416 0 0 1 .977-.688 5.905 5.905 0 0 1 1.768-.297 24.132 24.132 0 0 1 6.102 1.002c3.842.983 7.628 2.139 11.39 2.083 3.813-.097 7.775-.765 11.757-1.054a33.517 33.517 0 0 1 6.119-.014l.794.13.198.033a1.162 1.162 0 0 1 .773.577 1.458 1.458 0 0 1 .126.93 6.07 6.07 0 0 1-.604 1.665 17.744 17.744 0 0 1-1.668 2.652 13.386 13.386 0 0 1-2.178 2.323 5.293 5.293 0 0 1-1.538.901 2.741 2.741 0 0 1-1.078.16 2.172 2.172 0 0 1-1.148-.416 3.361 3.361 0 0 1-1.112-1.646 6.19 6.19 0 0 1-.348-1.723 2.612 2.612 0 0 1 .197-1.084 2.103 2.103 0 0 1 .785-.94 3.263 3.263 0 0 1 1.935-.456 8.668 8.668 0 0 1 3.176.848 9.82 9.82 0 0 1 2.683 1.8 5.427 5.427 0 0 1 1.06 1.384 2.849 2.849 0 0 1 .286 1.982 2.665 2.665 0 0 1-.448.944 2.693 2.693 0 0 1-.767.688 4.836 4.836 0 0 1-1.656.577 29.318 29.318 0 0 1-6.098.002c-.985-.058-1.963-.113-2.923-.106a7.895 7.895 0 0 0-2.692.376 1.334 1.334 0 0 0-.768.65 8.688 8.688 0 0 0-.368 1.316c-.197.936-.323 1.91-.435 2.884-.218 1.95-.36 3.92-.492 5.89-.49 7.889-.589 15.813-.703 23.731-.303-7.917-.398-15.839-.207-23.774.053-1.984.152-3.969.335-5.958.094-.995.2-1.99.388-2.995a9.492 9.492 0 0 1 .406-1.548 2.508 2.508 0 0 1 1.368-1.302 8.926 8.926 0 0 1 3.141-.545c1.02-.032 2.021 0 3.014.035a28.574 28.574 0 0 0 5.755-.12 3.39 3.39 0 0 0 1.127-.408 1.153 1.153 0 0 0 .326-.302 1.115 1.115 0 0 0 .175-.392c.138-.502-.31-1.249-.95-1.824a8.539 8.539 0 0 0-4.79-2.117 1.642 1.642 0 0 0-.917.178c-.142.099-.198.212-.202.551a3.268 3.268 0 0 0 .752 1.974c.138.095.28.114.607.009a3.609 3.609 0 0 0 .999-.614 11.675 11.675 0 0 0 1.853-2.02 15.97 15.97 0 0 0 1.473-2.38 4.718 4.718 0 0 0 .42-1.111c.026-.033-.05-.105.07.201a.775.775 0 0 0 .484.367l-.168-.026-.672-.105a31.903 31.903 0 0 0-5.742.069c-3.913.31-7.78 1.016-11.89 1.15-4.205.015-8.099-1.247-11.89-2.238a22.756 22.756 0 0 0-5.573-.988 4.457 4.457 0 0 0-1.154.162.496.496 0 0 0-.352.417 4.195 4.195 0 0 0 .513 2.28 9.698 9.698 0 0 0 1.48 2.259 4.689 4.689 0 0 0 .918.823 1.1 1.1 0 0 0 .345.161c.061-.014-.099.028-.106.057a5.88 5.88 0 0 0 .295-.989 9.396 9.396 0 0 0 .239-1.332 3.153 3.153 0 0 0 .008-.573c-.007-.161-.079-.265-.021-.19a.31.31 0 0 0 .16.089c.048.002.028-.001-.013.009a1.59 1.59 0 0 0-.416.199A8.659 8.659 0 0 0 24.042 65a12.232 12.232 0 0 0-1.481 2.334 5.106 5.106 0 0 0-.413 1.204 1.032 1.032 0 0 0 .062.77c.003.015.089.079.032.037a.885.885 0 0 0 .17.045 5.886 5.886 0 0 0 .645.08c.465.036.954.05 1.442.06 1.962.038 3.962.031 5.966.161a17.681 17.681 0 0 1 6.028 1.197 4.177 4.177 0 0 1 1.388.998 5.384 5.384 0 0 1 .853 1.423 14.15 14.15 0 0 1 .829 2.974 40.313 40.313 0 0 1 .55 5.982c.11 3.983-.063 7.95-.328 11.907q-.4 5.934-1.177 11.828z" transform="translate(.728 .128)"/><path class="cls-2" d="M54.872 122c-5.751.198-11.504.194-17.27.03q-2.161-.079-4.327-.25a26.393 26.393 0 0 1-4.384-.639c-.197-.066-.386-.122-.595-.214l-.33-.175a1.812 1.812 0 0 1-.389-.376.922.922 0 0 1-.153-.435.885.885 0 0 1 .121-.512 1.206 1.206 0 0 1 .425-.422 3.052 3.052 0 0 1 .637-.287 15.035 15.035 0 0 1 2.218-.497c1.448-.231 2.885-.39 4.323-.54 5.723-.62 11.528-.828 17.089-1.689a8.96 8.96 0 0 0 1.822-.465c.052-.02.064-.038.06-.03-.015.022-.108.05-.198.356a.71.71 0 0 0 .035.396.516.516 0 0 0 .098.175c.047.05.035.036.015.023a3.87 3.87 0 0 0-.764-.286 33.237 33.237 0 0 0-4.1-.75c-2.82-.375-5.676-.642-8.533-.904-2.859-.275-5.72-.524-8.598-.838-.72-.08-1.441-.164-2.172-.27-.366-.053-.732-.11-1.116-.186a7.202 7.202 0 0 1-.613-.148 2.618 2.618 0 0 1-.43-.17 1.86 1.86 0 0 1-.2-.131.92.92 0 0 1-.194-.198 1.143 1.143 0 0 1-.185-.377 1.047 1.047 0 0 1 .021-.559.945.945 0 0 1 .204-.364 1.33 1.33 0 0 1 .293-.243 2.777 2.777 0 0 1 .795-.272c.204-.045.393-.078.581-.109a28.7 28.7 0 0 1 1.106-.155c.728-.09 1.449-.16 2.17-.225 5.751-.5 11.486-.84 17.167-1.443a34.852 34.852 0 0 0 4.152-.656 3.313 3.313 0 0 0 .76-.27s-.022.014-.022.028a.419.419 0 0 0-.093.218c-.015.288.103.38.11.385a1.315 1.315 0 0 0-.238-.124 9.94 9.94 0 0 0-1.942-.424c-2.794-.368-5.684-.484-8.548-.676-2.87-.2-5.748-.398-8.613-.772a30.643 30.643 0 0 1-4.262-.815 7.602 7.602 0 0 1-2.006-.855 2 2 0 0 1-.744-.802A1.252 1.252 0 0 1 28.13 103a1.214 1.214 0 0 0-.007 1.026 1.893 1.893 0 0 0 .756.705 7.398 7.398 0 0 0 2.002.691 30.886 30.886 0 0 0 4.242.58c2.855.223 5.725.271 8.598.32 2.877.075 5.743.085 8.666.355a10.306 10.306 0 0 1 2.275.43 2.17 2.17 0 0 1 .7.395 1.073 1.073 0 0 1 .229.292.872.872 0 0 1 .098.56.97.97 0 0 1-.203.458 1.773 1.773 0 0 1-.219.21 3.966 3.966 0 0 1-1.23.535 35.874 35.874 0 0 1-4.34.813c-5.735.795-11.483 1.171-17.177 1.779l-2.117.244-1.028.15a8.613 8.613 0 0 0-.478.091c-.128.019-.34.104-.23.052a.692.692 0 0 0 .187-.16.93.93 0 0 0 .172-.308.915.915 0 0 0 .012-.495.81.81 0 0 0-.148-.321 1.168 1.168 0 0 0-.148-.15.361.361 0 0 0-.088-.06c-.023-.012.02.007.074.023.124.034.275.07.436.1.321.063.666.115 1.01.163.694.096 1.402.175 2.11.25 2.84.295 5.708.527 8.574.791 2.866.279 5.734.561 8.613.96a34.656 34.656 0 0 1 4.371.831 5.32 5.32 0 0 1 1.237.502 1.942 1.942 0 0 1 .432.36 1.477 1.477 0 0 1 .243.401 1.2 1.2 0 0 1 .05.66 1.303 1.303 0 0 1-.507.78 2.238 2.238 0 0 1-.403.242 9.52 9.52 0 0 1-2.344.601c-2.928.437-5.79.606-8.669.812l-8.596.564c-1.425.109-2.85.229-4.247.414a13.966 13.966 0 0 0-1.998.385 1.988 1.988 0 0 0-.351.137c-.031.01-.039.041.03-.063a.489.489 0 0 0 .052-.259.474.474 0 0 0-.057-.19c.022-.017-.035-.035.003-.009l.144.082c.116.057.273.11.413.165a25.613 25.613 0 0 0 4.117.748c1.415.171 2.842.295 4.27.414 5.716.492 11.465.692 17.211.944z" transform="translate(.728 .128)"/><path class="cls-3 cls-4" d="M32 4c-2.796 2.079-5.447 3.971-7.904 6.15-2.44 2.174-4.808 4.383-7.033 6.773a197.54 197.54 0 0 0-6.545 7.35L4 32a34.712 34.712 0 0 1 3.947-9.538 46.006 46.006 0 0 1 6.215-8.291 39.23 39.23 0 0 1 8.104-6.565A27.12 27.12 0 0 1 32 4z" transform="translate(.728 .128)"/></svg>