<svg id="Шар_1" data-name="Шар 1" xmlns="http://www.w3.org/2000/svg" viewBox="0 0 161.65 30.35001"><defs><style>.cls-1{fill:none;stroke:#8c8c8c;stroke-miterlimit:10;stroke-width:2px;}</style></defs><title>tetris_line</title><rect class="cls-1" x="-0.5" y="18.35" width="9.15" height="9.15" transform="translate(-17.35 28.85001) rotate(-90)"/><rect class="cls-1" x="8.65" y="18.35" width="9.15" height="9.15" transform="translate(-8.19999 38.00002) rotate(-90)"/><rect class="cls-1" x="17.80001" y="18.35" width="9.15" height="9.15" transform="translate(0.95001 47.15002) rotate(-90)"/><rect class="cls-1" x="26.95001" y="18.35" width="9.15" height="9.15" transform="translate(10.10002 56.30002) rotate(-90)"/><rect class="cls-1" x="17.80001" y="9.14999" width="9.15" height="9.15" transform="translate(10.15002 37.95001) rotate(-90)"/><rect class="cls-1" x="26.95001" y="9.14999" width="9.15" height="9.15" transform="translate(19.30002 47.10002) rotate(-90)"/><rect class="cls-1" x="17.80001" y="-0.00002" width="9.15" height="9.15" transform="translate(19.30002 28.80001) rotate(-90)"/><rect class="cls-1" x="36.10002" y="18.35" width="9.15" height="9.15" transform="translate(19.25002 65.45003) rotate(-90)"/><rect class="cls-1" x="45.25002" y="18.35" width="9.15" height="9.15" transform="translate(28.40003 74.60003) rotate(-90)"/><rect class="cls-1" x="65.425" y="18.35" width="9.15" height="9.15" transform="translate(48.575 94.77501) rotate(-90)"/><rect class="cls-1" x="75.27499" y="18.35" width="9.15" height="9.15" transform="translate(58.425 104.625) rotate(-90)"/><rect class="cls-1" x="75.27499" y="9.14999" width="9.15" height="9.15" transform="translate(67.625 95.425) rotate(-90)"/><rect class="cls-1" x="84.425" y="18.35" width="9.15" height="9.15" transform="translate(67.575 113.77501) rotate(-90)"/><rect class="cls-1" x="93.575" y="18.35" width="9.15" height="9.15" transform="translate(76.72501 122.92501) rotate(-90)"/><rect class="cls-1" x="75.27499" y="-0.85001" width="9.15" height="9.15" transform="translate(77.625 85.425) rotate(-90)"/><rect class="cls-1" x="84.27499" y="9.14999" width="9.15" height="9.15" transform="translate(76.625 104.425) rotate(-90)"/><rect class="cls-1" x="65.425" y="9.14999" width="9.15" height="9.15" transform="translate(57.77501 85.575) rotate(-90)"/><rect class="cls-1" x="84.27499" y="-0.85001" width="9.15" height="9.15" transform="translate(86.625 94.425) rotate(-90)"/><rect class="cls-1" x="102.85" y="18.35" width="9.15" height="9.15" transform="translate(86 132.20001) rotate(-90)"/><rect class="cls-1" x="112.69999" y="18.35" width="9.15" height="9.15" transform="translate(95.85 142.05) rotate(-90)"/><rect class="cls-1" x="121.85" y="18.35" width="9.15" height="9.15" transform="translate(105 151.20001) rotate(-90)"/><rect class="cls-1" x="131" y="18.35" width="9.15" height="9.15" transform="translate(114.15 160.35001) rotate(-90)"/><rect class="cls-1" x="121.85" y="9.35" width="9.15" height="9.15" transform="translate(114 142.20001) rotate(-90)"/><rect class="cls-1" x="140.85" y="18.35" width="9.15" height="9.15" transform="translate(124 170.20001) rotate(-90)"/><rect class="cls-1" x="150" y="18.35" width="9.15" height="9.15" transform="translate(133.15 179.35001) rotate(-90)"/></svg>