<svg id="Шар_1" data-name="Шар 1" xmlns="http://www.w3.org/2000/svg" viewBox="0 0 324 513.484"><defs><style>.cls-1{fill:#f2f2f2}.cls-1,.cls-2{stroke:#b3b3b3}.cls-1,.cls-2,.cls-3,.cls-4,.cls-5,.cls-6{stroke-miterlimit:10}.cls-1,.cls-2,.cls-3{stroke-width:4px}.cls-2{fill:#e6e6e6}.cls-3{fill:#db4275;stroke:#a13056}.cls-4,.cls-5,.cls-6{fill:#ccc;stroke:#999;stroke-width:3px}.cls-5,.cls-6{fill:none;stroke:#8c8c8c}.cls-6{stroke-width:2px}.cls-7{fill:url(#Градієнт_без_назви_9)}</style><linearGradient id="Градієнт_без_назви_9" x1="162" y1="513" x2="162" y2="469" gradientUnits="userSpaceOnUse"><stop offset=".081" stop-color="#fff"/><stop offset=".279" stop-color="#fff" stop-opacity=".763"/><stop offset=".636" stop-color="#fff" stop-opacity=".356"/><stop offset=".884" stop-color="#fff" stop-opacity=".1"/><stop offset="1" stop-color="#fff" stop-opacity="0"/></linearGradient></defs><title>tetris</title><path class="cls-1" d="M7 511.484V37.516A37.627 37.627 0 0 1 44.516 0h228.968A37.627 37.627 0 0 1 311 37.516v473.968" transform="translate(2 2)"/><rect class="cls-2" x="2" y="292" width="320" height="54" rx="16" ry="16"/><circle class="cls-3" cx="70.5" cy="368.5" r="6"/><circle class="cls-3" cx="130.5" cy="368.5" r="6"/><circle class="cls-3" cx="190.5" cy="368.5" r="6"/><circle class="cls-3" cx="250.5" cy="368.5" r="6"/><path class="cls-4" d="M62 53h199v202H62z"/><circle class="cls-3" cx="74.5" cy="426.62" r="11.62"/><circle class="cls-3" cx="47.62" cy="453.5" r="11.62"/><circle class="cls-3" cx="101.38" cy="453.5" r="11.62"/><circle class="cls-3" cx="74.5" cy="480.38" r="11.62"/><circle class="cls-3" cx="257" cy="454" r="20"/><path class="cls-5" d="M225 54.5v199"/><path class="cls-6" d="M238 65h9v9h-9zM238 74h9v9h-9zM238 83h9v9h-9zM238 92h9v9h-9z"/><path class="cls-7" d="M2 469h320v44H2z"/></svg>